<svg width="72" height="62" viewBox="0 0 72 62" fill="none" xmlns="http://www.w3.org/2000/svg">
<path d="M36 0C55.8823 0 72 16.1177 72 36C72 46.1741 67.7779 55.3609 60.9922 61.9082L66 40C66 40 64.0173 42.0312 62.5 43C60.8819 44.0332 58.0098 44.9967 58 45H39V52C39 52 38.5 54 36 54C33.5 54 33 52 33 52V45H13.873C13.8671 44.9979 11.0707 44.0256 9.5 43C7.97781 42.0061 6.0126 39.9216 6 39.9082L10.916 61.8193C4.18401 55.2779 0 46.1282 0 36C0 16.1177 16.1177 0 36 0ZM30 9C26.6863 9 24 11.6863 24 15V21H9C7.34315 21 6 22.3431 6 24V32C6 37.5228 10.4772 42 16 42H56C61.5228 42 66 37.5228 66 32V24C66 22.3431 64.6569 21 63 21H48V15C48 11.6863 45.3137 9 42 9H30ZM42 21H30V15H42V21Z" fill="black"/>
</svg>
