<svg width="160" height="60" viewBox="0 0 160 60" fill="none" xmlns="http://www.w3.org/2000/svg">
<rect x="0.5" y="0.5" width="159" height="59" rx="5.5" stroke="#1B1B1B"/>
<g opacity="0.3" clip-path="url(#clip0_0_35)">
<path d="M59.6152 23.6764L64.1922 23.6761C68.1118 23.6758 70.5901 26.2044 70.5904 30.1492C70.5906 34.094 68.1253 36.6229 64.1931 36.6232L59.6161 36.6235L59.6152 23.6764ZM64.0918 34.2589C66.5573 34.2587 67.9101 32.6781 67.9099 30.162C67.9098 27.6333 66.5568 26.0529 64.0913 26.0531L62.2959 26.0532L62.2964 34.259L64.0918 34.2589Z" fill="white"/>
<path d="M77.5317 29.7821C77.1777 29.5672 76.7099 29.4661 76.2168 29.4661C75.3317 29.4661 74.611 29.934 74.4214 30.7938L74.4218 36.6352L71.8172 36.6353L71.8166 27.2032L74.4338 27.203L74.4339 28.126C74.8385 27.4558 75.6097 26.988 76.5453 26.9879C76.9879 26.9879 77.3925 27.0764 77.5315 27.1522L77.5317 29.7821Z" fill="white"/>
<rect x="9.49997" y="2.5" width="159" height="59" rx="5.5" stroke="#1B1B1B"/>
<path d="M82.7541 36.8496C80.0104 36.8497 78.1264 34.8269 78.1262 31.9315C78.126 29.0234 80.0097 26.9877 82.7534 26.9875C85.4971 26.9873 87.3685 29.0102 87.3687 31.9309C87.3689 34.8263 85.4977 36.8494 82.7541 36.8496ZM82.7536 29.2128C81.4386 29.2129 80.7306 30.3508 80.7308 31.9313C80.7309 33.4865 81.4516 34.637 82.7539 34.6369C84.0562 34.6368 84.7768 33.4988 84.7767 31.931C84.7766 30.3506 84.0559 29.2127 82.7536 29.2128Z" fill="white"/>
<path d="M91.1117 40.1237L88.4945 40.1238L88.4936 27.202L91.1109 27.2018L91.1109 27.9857C91.5281 27.48 92.4637 26.9994 93.4752 26.9994C96.2189 26.9992 97.7742 29.2749 97.7744 31.9427C97.7746 34.5979 96.2196 36.8612 93.4759 36.8614C92.4644 36.8615 91.5287 36.3811 91.1115 35.8754L91.1117 40.1237ZM91.1113 33.4731C91.4274 34.1305 92.1229 34.573 92.8815 34.573C94.2976 34.5729 95.1446 33.4349 95.1445 31.9303C95.1444 30.413 94.2972 29.2752 92.8811 29.2753C92.0972 29.2753 91.4271 29.7432 91.1111 30.3754L91.1113 33.4731Z" fill="white"/>
<path d="M101.543 36.6333L98.9 36.6335L98.8991 22.9151L101.542 22.9149L101.542 27.985C101.959 27.4793 102.895 26.9987 103.906 26.9987C106.65 26.9985 108.193 29.2363 108.193 31.9421C108.193 34.6478 106.651 36.8606 103.907 36.8607C102.895 36.8608 101.96 36.3804 101.543 35.8747L101.543 36.6333ZM101.542 33.4724C101.833 34.1298 102.529 34.5723 103.313 34.5723C104.729 34.5722 105.576 33.4342 105.576 31.9296C105.575 30.4124 104.728 29.2745 103.312 29.2746C102.554 29.2746 101.833 29.7425 101.542 30.3747L101.542 33.4724Z" fill="white"/>
<path d="M113.756 36.8727C111.013 36.8729 109.129 34.8501 109.128 31.9547C109.128 29.0466 111.012 27.0109 113.756 27.0107C116.499 27.0105 118.371 29.0334 118.371 31.954C118.371 34.8494 116.487 36.8726 113.756 36.8727ZM113.756 29.236C112.441 29.2361 111.733 30.374 111.733 31.9545C111.733 33.5097 112.454 34.6602 113.756 34.6601C115.059 34.66 115.779 33.522 115.779 31.9542C115.779 30.3738 115.058 29.2359 113.756 29.236Z" fill="white"/>
<path d="M124.25 31.764L127.69 36.6442L124.794 36.6444L122.771 33.6859L120.723 36.6447L117.979 36.6449L121.38 31.8274L118.181 27.2127L121.076 27.2125L122.897 29.8928L124.743 27.2123L127.487 27.2121L124.25 31.764Z" fill="white"/>
<path d="M39.9414 19.2398L33.1268 23.6276L37.8431 27.433L44.6957 23.1969L39.9414 19.2398Z" fill="white"/>
<path d="M33.1273 31.1506L39.9425 35.626L44.6963 31.6682L37.8431 27.433L33.1273 31.1506Z" fill="white"/>
<path d="M44.6963 31.6682L49.4506 35.6253L56.2399 31.1996L51.5362 27.4321L44.6963 31.6682Z" fill="white"/>
<path d="M56.2394 23.664L49.4495 19.2391L44.6957 23.1969L51.5362 27.4321L56.2394 23.664Z" fill="white"/>
<path d="M44.709 32.5153L39.9426 36.4731L37.8942 35.1456L37.8943 36.6376L44.7095 40.721L51.5115 36.6367L51.5114 35.1447L49.4759 36.4724L44.709 32.5153Z" fill="white"/>
</g>
<defs>
<clipPath id="clip0_0_35">
<rect width="94.8276" height="22" fill="white" transform="translate(33 19)"/>
</clipPath>
</defs>
</svg>
