<svg width="160" height="60" viewBox="0 0 160 60" fill="none" xmlns="http://www.w3.org/2000/svg">
<rect x="0.5" y="0.5" width="159" height="59" rx="5.5" stroke="#1B1B1B"/>
<g opacity="0.3" clip-path="url(#clip0_0_65)">
<path d="M67.0091 30.6153C67.0117 29.4788 66.6629 28.3693 66.0102 27.4388C65.3577 26.5083 64.4333 25.8023 63.3639 25.4176C63.4612 24.9216 63.5102 24.4173 63.5103 23.9118C63.5112 22.2386 62.9813 20.6083 61.9972 19.2551C61.013 17.902 59.6252 16.8958 58.033 16.3812C56.4411 15.8666 54.7267 15.8702 53.1368 16.3913C51.5468 16.9124 50.163 17.9242 49.1844 19.2814C48.4623 18.7219 47.5776 18.4129 46.6642 18.4014C45.7507 18.3898 44.8584 18.6763 44.1224 19.2173C43.3864 19.7584 42.8468 20.5246 42.5852 21.3998C42.3237 22.2751 42.3546 23.2117 42.6731 24.0678C41.6012 24.4586 40.6747 25.1683 40.0182 26.1014C39.3617 27.0345 39.0067 28.1463 39.0009 29.2872C38.998 30.4276 39.3487 31.5409 40.0047 32.4737C40.6608 33.4066 41.5898 34.1132 42.664 34.4962C42.569 34.9921 42.5205 35.4956 42.5193 36.0004C42.5178 37.6716 43.0471 39.3001 44.0309 40.6512C45.0146 42.0022 46.4021 43.0058 47.9931 43.5175C49.5841 44.0291 51.2964 44.0223 52.8833 43.4978C54.4701 42.9736 55.8494 41.9588 56.8223 40.5999C57.5424 41.1608 58.4256 41.4715 59.3382 41.4852C60.2508 41.4988 61.1429 41.2143 61.8791 40.6751C62.6156 40.1357 63.156 39.3711 63.4183 38.497C63.6808 37.6228 63.6512 36.6871 63.3337 35.8313C64.4061 35.4412 65.3333 34.7317 65.9901 33.7985C66.6471 32.8654 67.002 31.7532 67.0075 30.612" fill="white"/>
<path d="M50.0119 28.0148L56.1412 30.8128L62.3269 25.3947C62.4159 24.9477 62.4601 24.4928 62.4586 24.037C62.4582 22.5613 61.9855 21.1245 61.1097 19.9368C60.2339 18.7491 59.001 17.8728 57.5913 17.4363C56.1816 16.9997 54.6693 17.0258 53.2755 17.5107C51.8817 17.9955 50.6797 18.9137 49.8454 20.1309L48.8153 25.4607L50.0119 28.0148Z" fill="black"/>
<path d="M43.6684 34.5057C43.5781 34.9597 43.5329 35.4216 43.5334 35.8845C43.5336 37.3664 44.0087 38.8092 44.8891 40.0011C45.7694 41.1932 47.0087 42.0715 48.425 42.5073C49.8413 42.9432 51.36 42.9136 52.7583 42.4229C54.1565 41.9323 55.3607 41.0063 56.1939 39.7809L57.2142 34.4625L55.8515 31.8579L49.6995 29.0551L43.6684 34.5057Z" fill="black"/>
<path d="M43.6303 23.8999L47.8304 24.891L48.7498 20.1147C48.1786 19.6816 47.4823 19.4451 46.7654 19.4408C46.0485 19.4365 45.3495 19.6645 44.773 20.0907C44.1966 20.517 43.7737 21.1184 43.5677 21.8051C43.3617 22.4918 43.3837 23.2268 43.6303 23.8999Z" fill="black"/>
<path d="M43.2658 24.8994C42.3443 25.2105 41.5426 25.8009 40.9722 26.5887C40.4019 27.3765 40.0913 28.3225 40.0835 29.295C40.0829 30.2349 40.3684 31.1528 40.902 31.9265C41.4357 32.7003 42.1922 33.2933 43.071 33.6267L48.9637 28.2998L47.8809 25.9882L43.2658 24.8994Z" fill="black"/>
<path d="M57.2716 39.7808C57.8421 40.2117 58.5365 40.4467 59.2514 40.4504C59.9662 40.4541 60.6631 40.2267 61.2379 39.8017C61.8128 39.3768 62.2347 38.7772 62.4409 38.0927C62.647 37.4083 62.6261 36.6754 62.3814 36.0037L58.1846 35.0273L57.2716 39.7808Z" fill="black"/>
<path d="M58.1242 33.9219L62.7443 35.0009C63.6663 34.6907 64.4685 34.1006 65.039 33.3125C65.6096 32.5245 65.9198 31.5782 65.9265 30.6054C65.9257 29.6674 65.6396 28.7519 65.1064 27.9803C64.573 27.2087 63.8178 26.6175 62.9407 26.2851L56.8982 31.5762L58.1242 33.9219Z" fill="black"/>
<path d="M78.1623 35.5973L78.7223 35.5403L78.7614 36.6798C77.5153 36.8681 76.2579 36.9716 74.9977 36.9894C73.6086 36.9895 72.6242 36.5875 72.0446 35.7833C71.465 34.9792 71.1756 33.7278 71.1767 32.0294C71.1764 28.6466 72.521 26.9546 75.2103 26.9533C76.5126 26.9533 77.484 27.3168 78.1243 28.0438C78.7648 28.7709 79.086 29.9105 79.0883 31.4624L79.0118 32.5629L72.6435 32.5633C72.6435 33.6312 72.8368 34.4223 73.2231 34.9367C73.6096 35.4511 74.2813 35.7083 75.2386 35.7082C76.198 35.7114 77.1725 35.6744 78.1623 35.5973ZM77.6411 31.4104C77.641 30.2264 77.4516 29.3902 77.0727 28.9018C76.6939 28.4135 76.0764 28.1688 75.2201 28.1678C74.3639 28.1678 73.7204 28.4251 73.2895 28.9395C72.8588 29.454 72.6368 30.2777 72.6238 31.4107L77.6411 31.4104Z" fill="white"/>
<path d="M81.1072 36.9125L81.1064 24.2148L82.5536 24.2147L82.5544 36.9124L81.1072 36.9125Z" fill="white"/>
<path d="M91.6686 30.0583L91.6689 34.9257C91.669 35.4141 92.8704 35.388 92.8704 35.388L92.7972 36.6675C91.7798 36.6676 90.9381 36.7523 90.4335 36.2623C89.3407 36.7478 88.1569 36.9949 86.9612 36.987C86.0745 36.987 85.3989 36.7359 84.9344 36.2334C84.4699 35.7309 84.2381 35.0088 84.2391 34.0667C84.2391 33.1269 84.4772 32.435 84.9536 31.9911C85.4301 31.5472 86.1761 31.2758 87.192 31.177L90.2215 30.8886L90.2214 30.0584C90.2214 29.4072 90.0802 28.9373 89.7981 28.6486C89.6434 28.5035 89.4611 28.3912 89.2618 28.3185C89.0625 28.2458 88.8508 28.2141 88.639 28.2255L84.8362 28.2257L84.8361 26.9511L88.5428 26.9508C89.6368 26.9507 90.4312 27.2019 90.9261 27.7044C91.4211 28.2068 91.6686 28.9915 91.6686 30.0583ZM85.7221 33.995C85.7222 35.1789 86.2106 35.771 87.1874 35.7709C88.0686 35.7699 88.9432 35.6196 89.7741 35.3263L90.2169 35.1716L90.2167 31.9875L87.3662 32.2579C86.7867 32.31 86.3683 32.4772 86.1111 32.7594C85.8539 33.0415 85.7242 33.4534 85.7221 33.995Z" fill="white"/>
<path d="M97.319 28.2444C95.9157 28.2445 95.2141 28.7329 95.2142 29.7097C95.2142 30.1612 95.377 30.4797 95.7026 30.6652C96.0282 30.8508 96.7614 31.0439 97.902 31.2446C99.048 31.4453 99.8587 31.7253 100.334 32.0845C100.809 32.4437 101.048 33.1186 101.049 34.1095C101.049 35.1014 100.731 35.8286 100.093 36.291C99.4565 36.7534 98.527 36.9851 97.3049 36.9863C96.5072 36.9863 93.8439 36.6902 93.8439 36.6902L93.922 35.4367C95.4522 35.5832 96.5576 35.6922 97.3048 35.6921C98.052 35.6921 98.6202 35.5732 99.0125 35.3355C99.4048 35.0978 99.6001 34.6989 99.6001 34.1389C99.6 33.5789 99.4372 33.1996 99.0986 32.9994C98.76 32.7992 98.0307 32.6104 96.8992 32.4298C95.7678 32.2492 94.962 31.9855 94.4866 31.6388C94.0113 31.2921 93.7719 30.6475 93.7719 29.7082C93.7718 28.7689 94.0973 28.0802 94.7664 27.6244C95.4354 27.1685 96.2559 26.9487 97.2456 26.9486C98.0303 26.9486 100.754 27.1486 100.754 27.1486L100.754 28.4102C99.3164 28.3469 98.1411 28.2444 97.319 28.2444Z" fill="white"/>
<path d="M108.024 28.3967L104.955 28.3969L104.956 33.0104C104.956 34.1162 105.036 34.8429 105.197 35.1902C105.36 35.5385 105.741 35.7111 106.345 35.711L108.062 35.5953L108.16 36.7918C107.509 36.9122 106.851 36.9833 106.19 37.0052C105.187 37.0053 104.493 36.7606 104.106 36.2712C103.72 35.7817 103.527 34.8489 103.528 33.4728L103.528 28.397L102.164 28.3971L102.164 27.1436L103.534 27.1435L103.534 24.1905L104.962 24.1904L104.962 27.1434L108.024 27.1432L108.024 28.3967Z" fill="white"/>
<path d="M110.036 25.9108L110.036 24.2308L111.483 24.2307L111.483 25.9107L110.036 25.9108ZM110.037 36.9105L110.036 27.1431L111.483 27.143L111.484 36.9104L110.037 36.9105Z" fill="white"/>
<path d="M117.752 26.9489C118.475 26.9797 119.195 27.0574 119.908 27.1815L120.37 27.2385L120.313 28.4155C119.557 28.3197 118.796 28.2621 118.034 28.2431C116.94 28.2431 116.197 28.5036 115.806 29.0246C115.414 29.5456 115.217 30.5104 115.216 31.9191C115.217 33.33 115.4 34.3109 115.767 34.8623C116.134 35.4136 116.899 35.6903 118.062 35.6924L120.341 35.5196L120.4 36.7162C119.513 36.8665 118.617 36.9569 117.717 36.9866C116.213 36.9867 115.174 36.6004 114.601 35.8277C114.028 35.055 113.742 33.7527 113.742 31.9208C113.741 30.0878 114.05 28.8012 114.668 28.061C115.285 27.3208 116.313 26.9501 117.752 26.9489Z" fill="white"/>
</g>
<defs>
<clipPath id="clip0_0_65">
<rect width="81.3953" height="28" fill="white" transform="translate(39 16)"/>
</clipPath>
</defs>
</svg>
