<svg width="137" height="38" viewBox="0 0 137 38" fill="none" xmlns="http://www.w3.org/2000/svg">
<path d="M25.8406 11.2171C26.0825 11.131 26.3674 11.1928 26.5505 11.3812L26.6228 11.4691L26.6316 11.4837L26.6394 11.4984C26.7153 11.6528 26.7814 11.888 26.8396 12.1653C26.899 12.4484 26.9542 12.795 27.0007 13.1859C27.094 13.9683 27.156 14.9386 27.156 15.9466V16.1087L27.0076 16.1741C26.3028 16.4878 23.7391 17.5509 22.6902 17.9866L22.6833 17.9896C22.3016 18.1352 21.3262 18.5512 20.3132 18.89C20.8087 19.0655 21.3031 19.2514 21.7429 19.4222L23.1746 19.9876L23.1873 19.9925L24.0222 20.3568C24.3133 20.4817 24.6134 20.6092 24.9128 20.7357L26.6189 21.4583L26.6218 21.4593C26.9056 21.5856 27.1208 21.8525 27.1208 22.1868C27.1208 22.5214 27.094 23.3851 27.0369 24.2855C26.9802 25.1781 26.8918 26.1377 26.7625 26.6478L26.696 26.9105L26.4402 26.8235C25.6942 26.5706 21.4111 24.7882 20.363 24.3528C19.2709 23.9137 15.0954 22.071 14.0457 21.6038L14.0369 21.5999L14.0291 21.596C13.9021 21.5281 13.8113 21.4392 13.7507 21.3245C13.6959 21.2208 13.6732 21.108 13.656 21.0159L13.655 21.0081L13.6541 21.0013C13.5472 20.145 13.5115 19.2598 13.5115 18.3489C13.5115 17.7572 13.5111 17.1257 13.5466 16.4935L13.5554 16.346L13.6892 16.2825C14.6766 15.8117 19.7427 13.696 20.8455 13.2523L21.9187 12.7982C23.2159 12.2625 25.0196 11.5472 25.8308 11.221L25.8406 11.2171Z" stroke="white" stroke-width="0.5"/>
<path d="M47.7334 9.34357C48.9314 9.34357 50.2695 9.37495 51.4639 9.40607L51.4629 9.40704C51.7454 9.40969 52.0234 9.6171 52.0234 9.93634C52.0234 9.98296 52.013 10.0561 52.0029 10.1209C51.9915 10.1948 51.9757 10.2865 51.958 10.3846C51.9231 10.5777 51.8789 10.8008 51.8438 10.9725C50.8936 16.6463 49.5222 22.6632 47.833 28.3992L47.7832 28.5682L47.6064 28.5779C46.4742 28.6406 43.6228 28.6717 42.4639 28.6717H42.2842L42.2275 28.5018C41.8075 27.2615 41.3346 26.0217 40.8682 24.7664C40.4902 23.7494 40.1184 22.723 39.7832 21.6863C39.4194 22.7224 39.0217 23.7449 38.626 24.7586C38.1383 26.008 37.6581 27.2461 37.2568 28.4979L37.2012 28.6717H37.0186C35.8279 28.6717 33.2724 28.6401 32.0654 28.5779V28.5789C32.0626 28.5789 32.0595 28.578 32.0566 28.5779C32.0551 28.5779 32.0533 28.578 32.0518 28.5779V28.577C31.7674 28.571 31.5109 28.3756 31.4092 28.1053L31.4033 28.0858C29.7152 22.1351 28.2015 15.7756 27.251 9.69415L27.207 9.41388L27.4912 9.40607C28.6138 9.37499 29.5317 9.34357 30.6953 9.34357C31.5904 9.34357 32.4105 9.34353 33.2715 9.36993L34.1504 9.40607L34.1631 9.40704L34.1748 9.40802C34.4369 9.44683 34.7363 9.61347 34.8037 9.91193H34.8027C35.3136 12.1483 35.6696 14.3838 36.0029 16.6121C36.5943 14.5031 37.3178 12.1175 37.9453 10.5291L38.0049 10.3768L38.1689 10.3709L39.8193 10.3084H39.8389L41.4551 10.3709L41.6191 10.3768L41.6787 10.5311C42.2742 12.0871 42.9891 14.415 43.5791 16.4871C43.9116 14.1975 44.2553 11.9039 44.6768 9.61017L44.7139 9.41193L44.916 9.40607C46.037 9.37503 46.9209 9.34357 47.7334 9.34357Z" stroke="white" stroke-width="0.5"/>
<path d="M52.8352 11.1937C53.5444 11.4468 57.828 13.2007 58.8762 13.637H58.8752C59.9703 14.0784 64.1417 15.9233 65.1965 16.4251L65.1956 16.4261C65.4972 16.5472 65.5493 16.8411 65.5784 16.971L65.5813 16.9837L65.5833 16.9964C65.6891 17.8777 65.76 18.7328 65.76 19.6526C65.76 20.2549 65.7247 20.8873 65.6897 21.511L65.6809 21.6585L65.5471 21.723C64.5575 22.1958 59.4692 24.3556 58.4202 24.7923L58.4172 24.7933C57.334 25.2297 54.4903 26.3882 53.3997 26.7962L53.3958 26.7982C53.119 26.8968 52.786 26.8017 52.6135 26.5452L52.6038 26.5316L52.5969 26.5159C52.5203 26.3597 52.4564 26.1235 52.4016 25.846C52.3455 25.5621 52.2953 25.2142 52.2532 24.8226C52.1689 24.039 52.1155 23.0685 52.1155 22.0599V21.9007L52.259 21.8333C52.5985 21.6739 53.4121 21.335 54.2629 20.9808C55.1189 20.6244 56.0182 20.2508 56.5403 20.0179L56.552 20.013H56.553C56.9346 19.8671 57.92 19.4543 58.9153 19.1165C57.6892 18.6887 56.4873 18.1593 56.0969 18.0101L56.0872 18.0062C55.5453 17.7723 54.9331 17.5142 54.3284 17.2601C53.7242 17.0062 53.1269 16.7558 52.6174 16.5364L52.6145 16.5355C52.3307 16.4089 52.1157 16.1412 52.1155 15.8069C52.1155 15.4698 52.1512 14.6028 52.217 13.7054C52.2824 12.8148 52.3795 11.8606 52.509 11.3655L52.5784 11.1019L52.8352 11.1937Z" stroke="white" stroke-width="0.5"/>
<path d="M69.1411 23.6955C69.1411 23.6707 69.1788 23.4348 69.2039 23.3106C69.5807 21.0381 70.1082 18.6414 70.5729 16.3441C71.1381 16.3193 71.7159 16.3193 72.3062 16.3193C72.9091 16.3193 73.4994 16.3317 74.1023 16.3441C74.1651 16.3441 74.2279 16.4062 74.2404 16.4683C74.7177 18.8525 75.308 21.3858 75.6723 23.7949C75.2829 23.8197 75.0066 23.8321 74.5795 23.8321C74.1525 23.8321 73.7883 23.8321 73.3487 23.7949C73.2859 23.7949 73.2231 23.7452 73.2105 23.6707C73.1226 23.2733 73.0472 22.8511 72.9844 22.4289H71.8164C71.741 22.8884 71.6656 23.3478 71.5777 23.7949C71.1758 23.8197 70.9497 23.8321 70.5353 23.8321C70.1082 23.8321 69.6686 23.8197 69.2542 23.7949C69.1914 23.7949 69.1411 23.7576 69.1411 23.6955ZM72.0299 20.8146H72.7332C72.5951 19.8956 72.4695 18.9643 72.3439 18.033C72.2308 18.9519 72.1304 19.8832 72.0299 20.8146Z" fill="white"/>
<path d="M75.4596 17.2879C75.4596 16.9899 75.4596 16.6794 75.4722 16.3441C75.8615 16.3317 77.959 16.3193 78.3735 16.3193C78.8005 16.3193 80.5464 16.3317 80.9734 16.3441C81.0362 16.3441 81.0864 16.4062 81.099 16.4683C81.099 16.8284 81.099 17.1761 81.099 17.5362C81.099 17.8343 81.099 18.1447 81.099 18.4552C80.8855 18.4676 80.2198 18.48 79.5667 18.48C79.5793 18.9891 79.5918 19.4983 79.5918 20.0695C79.5918 21.3113 79.5667 22.5531 79.5416 23.7949C79.1397 23.8197 78.8508 23.8321 78.4363 23.8321C78.0093 23.8321 77.5697 23.8197 77.1552 23.7949C77.0798 23.7949 77.0296 23.7452 77.0296 23.6707C77.0045 22.5034 76.9794 21.3113 76.9794 20.0695C76.9794 19.4983 76.9794 18.9891 76.9794 18.4676C76.4142 18.4552 75.8113 18.4428 75.5978 18.4303C75.5224 18.4303 75.4722 18.3807 75.4722 18.3062C75.4596 17.9585 75.4596 17.6232 75.4596 17.2879Z" fill="white"/>
<path d="M81.626 20.0695C81.626 18.8277 81.6386 17.5859 81.6763 16.3441C82.0656 16.3317 83.8617 16.3193 84.2762 16.3193C84.7032 16.3193 86.0471 16.3317 86.4741 16.3441C86.5369 16.3441 86.5872 16.4062 86.5997 16.4683C86.5997 16.8533 86.5997 17.201 86.5997 17.5487C86.5997 17.8467 86.5997 18.1447 86.5997 18.4552C86.1978 18.48 85.0172 18.48 84.6027 18.48C84.5022 18.48 84.3264 18.48 84.1129 18.48C84.1129 18.6911 84.1129 18.9146 84.1129 19.1382C84.6153 19.1382 85.2935 19.1506 85.6201 19.1506C85.6829 19.1506 85.7331 19.2127 85.7457 19.2748C85.7457 19.6225 85.7457 19.9205 85.7457 20.2185C85.7457 20.4793 85.7457 20.7401 85.7457 21.0381H84.1129C84.1129 21.2616 84.1129 21.4727 84.1129 21.6838H84.2762C84.7032 21.6838 86.0722 21.6962 86.4993 21.7087C86.5621 21.7087 86.6123 21.7708 86.6249 21.8328C86.6249 22.2178 86.6249 22.5655 86.6249 22.9132C86.6249 23.2112 86.6249 23.5093 86.6249 23.8197C86.2229 23.8445 84.879 23.857 84.4646 23.857C84.0375 23.857 82.2163 23.8197 81.8019 23.7949C81.7265 23.7949 81.6763 23.7452 81.6763 23.6707C81.6511 22.5034 81.626 21.3113 81.626 20.0695Z" fill="white"/>
<path d="M87.3295 20.0695C87.3295 18.8277 87.342 17.5859 87.3797 16.3441C87.7691 16.3317 88.058 16.3193 88.4724 16.3193C88.8995 16.3193 89.3391 16.3317 89.7661 16.3441C89.8289 16.3441 89.8917 16.4062 89.8917 16.4683C89.9168 17.6356 89.9419 18.8277 89.9419 20.0695C89.9419 20.6283 89.9294 21.1623 89.9294 21.6838H89.9796C90.4067 21.6838 91.4742 21.6962 91.9013 21.7087C91.9641 21.7087 92.0143 21.7708 92.0269 21.8328C92.0269 22.2178 92.0269 22.5655 92.0269 22.9132C92.0269 23.2112 92.0269 23.5093 92.0269 23.8197C91.625 23.8445 90.5825 23.857 90.168 23.857C89.741 23.857 87.9198 23.8197 87.5053 23.7949C87.43 23.7949 87.3797 23.7452 87.3797 23.6707C87.3546 22.5034 87.3295 21.3113 87.3295 20.0695Z" fill="white"/>
<path d="M92.481 20.0695C92.481 18.8277 92.4936 17.5859 92.5312 16.3441C92.9206 16.3317 93.2095 16.3193 93.624 16.3193C94.051 16.3193 94.4906 16.3317 94.9176 16.3441C94.9804 16.3441 95.0432 16.4062 95.0432 16.4683C95.0683 17.6356 95.0935 18.8277 95.0935 20.0695C95.0935 21.3113 95.0683 22.5531 95.0432 23.7949C94.6413 23.8197 94.3524 23.8321 93.9379 23.8321C93.5109 23.8321 93.0713 23.8197 92.6568 23.7949C92.5815 23.7949 92.5312 23.7452 92.5312 23.6707C92.5061 22.5034 92.481 21.3113 92.481 20.0695Z" fill="white"/>
<path d="M95.7626 16.0958C96.0891 15.4873 96.5036 14.8912 96.9306 14.32C96.9809 14.2579 97.0562 14.2082 97.119 14.2082C97.7596 14.171 98.2997 14.1586 98.9025 14.1586C99.1788 14.1586 99.4552 14.171 99.7692 14.171C100.171 14.618 100.56 15.1147 100.95 15.6363C101.013 15.7108 101.201 15.9343 101.201 16.0088C101.201 16.0337 101.188 16.0585 101.138 16.0585C100.774 16.0709 100.46 16.0833 100.133 16.0833C99.8571 16.0833 99.5682 16.0709 99.2291 16.0585C98.89 15.5866 98.689 15.2017 98.4629 14.7795C98.2745 15.1768 98.061 15.5618 97.8475 15.9716C97.8098 16.0337 97.7219 16.0958 97.6465 16.0958C97.2572 16.1082 96.9432 16.1206 96.6292 16.1206C96.3529 16.1206 96.0891 16.1082 95.7626 16.0958ZM96.0012 20.0695C96.0012 18.8277 96.0138 17.5859 96.0514 16.3441C96.4408 16.3317 98.2369 16.3193 98.6513 16.3193C99.0784 16.3193 100.422 16.3317 100.849 16.3441C100.912 16.3441 100.962 16.4062 100.975 16.4683C100.975 16.8533 100.975 17.201 100.975 17.5487C100.975 17.8467 100.975 18.1447 100.975 18.4552C100.573 18.48 99.3924 18.48 98.9779 18.48C98.8774 18.48 98.7016 18.48 98.4881 18.48C98.4881 18.6911 98.4881 18.9146 98.4881 19.1382C98.9905 19.1382 99.6687 19.1506 99.9952 19.1506C100.058 19.1506 100.108 19.2127 100.121 19.2748C100.121 19.6225 100.121 19.9205 100.121 20.2185C100.121 20.4793 100.121 20.7401 100.121 21.0381H98.4881C98.4881 21.2616 98.4881 21.4727 98.4881 21.6838H98.6513C99.0784 21.6838 100.447 21.6962 100.874 21.7087C100.937 21.7087 100.987 21.7708 101 21.8328C101 22.2178 101 22.5655 101 22.9132C101 23.2112 101 23.5093 101 23.8197C100.598 23.8445 99.2542 23.857 98.8397 23.857C98.4127 23.857 96.5915 23.8197 96.177 23.7949C96.1017 23.7949 96.0514 23.7452 96.0514 23.6707C96.0263 22.5034 96.0012 21.3113 96.0012 20.0695Z" fill="white"/>
<path d="M104.955 16.3441C105.357 16.3317 105.684 16.3193 106.098 16.3193C106.525 16.3193 106.902 16.3193 107.329 16.3441C107.404 16.3565 107.467 16.4062 107.48 16.4683C107.693 17.5114 107.831 18.5545 107.97 19.5976C108.196 18.6663 108.51 17.4742 108.773 16.7291L109.364 16.7042L109.941 16.7291C110.193 17.4617 110.507 18.629 110.733 19.5479C110.871 18.48 111.009 17.4121 111.185 16.3441C111.587 16.3317 111.901 16.3193 112.19 16.3193C112.617 16.3193 113.094 16.3317 113.521 16.3441C113.584 16.3441 113.634 16.3938 113.634 16.4559C113.634 16.4931 113.596 16.7167 113.571 16.8533C113.232 19.1133 112.742 21.51 112.139 23.7949C111.738 23.8197 110.72 23.8321 110.306 23.8321C110.004 22.8387 109.627 21.8453 109.351 20.827C109.05 21.8453 108.648 22.8263 108.359 23.8321C107.932 23.8321 107.015 23.8197 106.588 23.7949C106.525 23.7949 106.462 23.7452 106.437 23.6707C105.834 21.2989 105.294 18.7656 104.955 16.3441Z" fill="white"/>
<path d="M114.031 20.0695C114.031 18.8277 114.044 17.5859 114.082 16.3441C114.471 16.3317 116.267 16.3193 116.682 16.3193C117.109 16.3193 118.453 16.3317 118.88 16.3441C118.942 16.3441 118.993 16.4062 119.005 16.4683C119.005 16.8533 119.005 17.201 119.005 17.5487C119.005 17.8467 119.005 18.1447 119.005 18.4552C118.603 18.48 117.423 18.48 117.008 18.48C116.908 18.48 116.732 18.48 116.518 18.48C116.518 18.6911 116.518 18.9146 116.518 19.1382C117.021 19.1382 117.699 19.1506 118.026 19.1506C118.088 19.1506 118.139 19.2127 118.151 19.2748C118.151 19.6225 118.151 19.9205 118.151 20.2185C118.151 20.4793 118.151 20.7401 118.151 21.0381H116.518C116.518 21.2616 116.518 21.4727 116.518 21.6838H116.682C117.109 21.6838 118.478 21.6962 118.905 21.7087C118.968 21.7087 119.018 21.7708 119.03 21.8328C119.03 22.2178 119.03 22.5655 119.03 22.9132C119.03 23.2112 119.03 23.5093 119.03 23.8197C118.628 23.8445 117.285 23.857 116.87 23.857C116.443 23.857 114.622 23.8197 114.207 23.7949C114.132 23.7949 114.082 23.7452 114.082 23.6707C114.057 22.5034 114.031 21.3113 114.031 20.0695Z" fill="white"/>
<path d="M122.222 19.0761H122.31C122.699 19.0761 123.038 18.8898 123.038 18.5421C123.038 18.2068 122.712 18.0454 122.385 18.0454C122.335 18.0454 122.259 18.0454 122.234 18.0578C122.222 18.3682 122.222 18.6911 122.222 19.0761ZM122.234 20.9139C122.234 21.2492 122.247 21.5845 122.259 21.9198H122.46C122.938 21.9198 123.126 21.7335 123.126 21.4106C123.126 21.125 122.887 20.9139 122.548 20.9139H122.234ZM119.76 19.9081C119.76 18.6663 119.785 17.7101 119.785 16.4683C120.614 16.3441 121.531 16.2572 122.234 16.2572C123.98 16.2572 125.261 16.4062 125.261 18.4179C125.261 19.0761 124.985 19.6349 124.533 20.0198C125.224 20.4048 125.638 20.9512 125.638 21.5472C125.638 23.5217 124.282 23.857 122.586 23.857C121.732 23.857 120.777 23.8197 119.911 23.7204C119.835 23.7079 119.785 23.6459 119.785 23.5714C119.785 22.4041 119.76 21.1499 119.76 19.9081Z" fill="white"/>
</svg>
