<svg width="99" height="28" viewBox="0 0 99 28" fill="none" xmlns="http://www.w3.org/2000/svg">
<path d="M49.2919 13.4202C49.1054 13.2337 48.8609 13.1404 48.6163 13.1404C48.3718 13.1404 48.1272 13.2337 47.9407 13.4202L43.1079 18.253C42.6453 18.7156 41.8941 18.7156 41.4302 18.253L36.5962 13.4202C36.4097 13.2337 36.1651 13.1404 35.9206 13.1404C35.6761 13.1404 35.4315 13.2337 35.245 13.4202C35.0546 13.6093 34.9626 13.8589 34.9651 14.1072C34.9651 14.1097 34.9651 14.111 34.9651 14.1135V25.7327C34.9651 26.2609 35.3937 26.6895 35.9219 26.6895C36.45 26.6895 36.8786 26.2609 36.8786 25.7327V16.4051L40.9172 20.4437L41.4302 20.9567C41.8941 21.4206 42.6453 21.4193 43.1079 20.9567L43.621 20.4437L47.6596 16.4051V25.7327C47.6596 26.2609 48.0882 26.6895 48.6163 26.6895C49.1445 26.6895 49.573 26.2609 49.573 25.7327V14.1135C49.573 14.1135 49.573 14.1097 49.573 14.1072C49.5756 13.8589 49.4823 13.6105 49.2932 13.4215L49.2919 13.4202Z" fill="white"/>
<path d="M73.9408 13.1303C73.4127 13.1303 72.9841 13.5588 72.9841 14.087V22.8827L65.8825 13.4063C65.5661 12.984 64.9661 12.8983 64.5438 13.2147C64.2766 13.4151 64.1443 13.729 64.1632 14.0403C64.1632 14.0555 64.1606 14.0718 64.1606 14.087V25.7062C64.1606 26.2344 64.5892 26.663 65.1174 26.663C65.6455 26.663 66.0741 26.2344 66.0741 25.7062V16.85L73.1619 26.3062C73.4782 26.7285 74.0782 26.8142 74.5005 26.4978C74.6165 26.4109 74.706 26.3024 74.7702 26.1814C74.8509 26.0415 74.8976 25.8789 74.8976 25.7062V14.087C74.8976 13.5588 74.469 13.1303 73.9408 13.1303Z" fill="white"/>
<path d="M25.1333 15.0526V18.9122C25.2102 18.9148 25.2128 18.9173 25.2153 18.9173H27.769C28.277 18.9173 28.7245 19.2979 28.7598 19.8047C28.7901 20.2496 28.5178 20.6328 28.1283 20.7727C28.006 20.8294 27.8711 20.861 27.7275 20.861H25.2153C25.2153 20.861 25.2102 20.8635 25.1333 20.8673V24.7143C25.2102 24.7168 25.2128 24.7193 25.2153 24.7193H30.2106V24.7168H31.1774C31.4447 24.7168 31.6867 24.8252 31.8606 25.0004C32.0358 25.1756 32.1442 25.4164 32.1442 25.6836C32.1442 26.1034 31.877 26.4588 31.5039 26.5924C31.3816 26.6492 31.2442 26.6819 31.0993 26.6819H30.1325L24.1665 26.6832C23.6321 26.6832 23.1985 26.2508 23.1985 25.7164V14.0707C23.1985 13.5362 23.6321 13.1026 24.1665 13.1026H31.2178C31.2291 13.1026 31.2417 13.1026 31.2531 13.1039C31.7484 13.1215 32.1455 13.5286 32.1455 14.0303V14.0593C32.1455 14.474 31.8795 14.827 31.5102 14.9593C31.3879 15.016 31.2518 15.0488 31.1094 15.0488C28.9211 15.0475 28.122 15.0475 25.2153 15.0475C25.2128 15.0475 25.2102 15.0488 25.1333 15.0526Z" fill="white"/>
<path d="M54.3277 15.0526V18.9122C54.4046 18.9148 54.4071 18.9173 54.4096 18.9173H56.9634C57.4714 18.9173 57.9188 19.2979 57.9541 19.8047C57.9844 20.2496 57.7121 20.6328 57.3226 20.7727C57.2004 20.8294 57.0655 20.861 56.9218 20.861H54.4096C54.4096 20.861 54.4046 20.8635 54.3277 20.8673V24.7143C54.4046 24.7168 54.4071 24.7193 54.4096 24.7193H59.405V24.7168H60.3718C60.639 24.7168 60.881 24.8252 61.055 25.0004C61.2302 25.1756 61.3386 25.4164 61.3386 25.6836C61.3386 26.1034 61.0713 26.4588 60.6982 26.5924C60.576 26.6492 60.4386 26.6819 60.2936 26.6819H59.3268L53.3609 26.6832C52.8264 26.6832 52.3928 26.2508 52.3928 25.7164V14.0707C52.3928 13.5362 52.8264 13.1026 53.3609 13.1026H60.4121C60.4234 13.1026 60.4361 13.1026 60.4474 13.1039C60.9428 13.1215 61.3398 13.5286 61.3398 14.0303V14.0593C61.3398 14.474 61.0739 14.827 60.7045 14.9593C60.5823 15.016 60.4461 15.0488 60.3037 15.0488C58.1155 15.0475 57.3163 15.0475 54.4096 15.0475C54.4071 15.0475 54.4046 15.0488 54.3277 15.0526Z" fill="white"/>
<path d="M91.3611 15.0526V18.9122C91.438 18.9148 91.4405 18.9173 91.4431 18.9173H93.9968C94.5048 18.9173 94.9523 19.2979 94.9876 19.8047C95.0178 20.2496 94.7456 20.6328 94.3561 20.7727C94.2338 20.8294 94.0989 20.861 93.9552 20.861H91.4431C91.4431 20.861 91.438 20.8635 91.3611 20.8673V24.7143C91.438 24.7168 91.4405 24.7193 91.4431 24.7193H96.4384V24.7168H97.4052C97.6724 24.7168 97.9145 24.8252 98.0884 25.0004C98.2636 25.1756 98.372 25.4164 98.372 25.6836C98.372 26.1034 98.1048 26.4588 97.7317 26.5924C97.6094 26.6492 97.472 26.6819 97.3271 26.6819H96.3603L90.3943 26.6832C89.8599 26.6832 89.4263 26.2508 89.4263 25.7164V14.0707C89.4263 13.5362 89.8599 13.1026 90.3943 13.1026H97.4456C97.4569 13.1026 97.4695 13.1026 97.4808 13.1039C97.9762 13.1215 98.3733 13.5286 98.3733 14.0303V14.0593C98.3733 14.474 98.1073 14.827 97.738 14.9593C97.6157 15.016 97.4796 15.0488 97.3372 15.0488C95.1489 15.0475 94.3498 15.0475 91.4431 15.0475C91.4405 15.0475 91.438 15.0488 91.3611 15.0526Z" fill="white"/>
<path d="M86.6053 14.0694C86.6053 14.5975 86.1767 15.0261 85.6486 15.0261H83.1805V25.734C83.1805 26.2609 82.752 26.6895 82.2238 26.6895C81.6957 26.6895 81.2671 26.2609 81.2671 25.734V15.0261H78.673C78.1448 15.0261 77.7175 14.5975 77.7175 14.0694C77.7175 13.5412 78.1448 13.1127 78.673 13.1127H85.6486C86.1767 13.1127 86.6053 13.5412 86.6053 14.0694Z" fill="white"/>
<path d="M20.0924 26.3891C20.47 26.0116 20.47 25.3994 20.0924 25.0219C19.7148 24.6443 19.1027 24.6443 18.7251 25.0219C18.3476 25.3994 18.3476 26.0116 18.7251 26.3891C19.1027 26.7667 19.7148 26.7667 20.0924 26.3891Z" fill="white"/>
<path d="M19.2871 18.3815C19.219 17.3757 18.5069 16.5475 17.559 16.3042C17.4947 16.2879 17.4304 16.2727 17.3636 16.2626C17.2678 16.245 17.1695 16.2349 17.0686 16.2311H3.61913C3.13258 16.1984 2.74434 15.8051 2.71913 15.3173C2.71787 15.3009 2.71787 15.2845 2.71787 15.2656V15.2505C2.71913 15.171 2.72922 15.0942 2.74939 15.021C2.75695 14.9958 2.76451 14.9719 2.77208 14.9467C2.81619 14.808 2.86409 14.6719 2.91577 14.537C2.95611 14.4299 3.00023 14.324 3.0456 14.2194C3.13006 14.0253 3.22333 13.8362 3.32291 13.6509C4.01745 12.369 5.07248 11.3101 6.35189 10.6118C7.02499 11.5774 7.89095 12.432 8.93717 13.1152C11.3989 14.7236 14.3334 15.0349 16.935 14.2194C17.5237 14.0353 18.0959 13.7933 18.6417 13.4958C18.3871 12.9059 18.0745 12.3475 17.7102 11.827C16.001 9.38285 13.1674 7.7858 9.95943 7.7858C9.84472 7.7858 9.73002 7.78832 9.61657 7.7921C10.8582 6.08791 11.4771 4.03204 11.4216 1.9686C11.4052 1.33331 11.3245 0.698022 11.1783 0.0728149C10.5632 0.158529 9.95817 0.304746 9.37582 0.506426C6.79936 1.3976 4.62501 3.39422 3.60274 6.15093C3.16913 7.32319 2.98132 8.52571 3.01535 9.70175C3.02417 10.0496 3.05443 10.3938 3.10233 10.7354C2.1683 11.7198 1.44225 12.9047 0.999816 14.2194C0.868724 14.6101 0.761582 15.0135 0.682171 15.4257C0.68091 15.4282 0.68091 15.4307 0.68091 15.432C0.672087 15.4761 0.663263 15.5215 0.6557 15.5668C0.653179 15.5795 0.651919 15.5908 0.649398 15.6034C0.641835 15.6589 0.635532 15.7143 0.633011 15.7698C0.63049 15.7723 0.63049 15.7736 0.633011 15.7773C0.627969 15.8278 0.626709 15.8794 0.626709 15.9299C0.626709 15.9828 0.627969 16.0332 0.633011 16.0849C0.697297 17.0908 1.40822 17.9202 2.35233 18.1673C2.48216 18.2013 2.61829 18.224 2.75569 18.2353C2.81619 18.2404 2.87796 18.2429 2.93972 18.2429H16.2329C16.7497 18.2429 17.172 18.6488 17.1985 19.1593C17.1985 19.1769 17.1985 19.1933 17.1985 19.2109V19.2198C17.1985 19.308 17.1846 19.3937 17.1619 19.4744C17.1581 19.487 17.1543 19.4996 17.1506 19.5122C17.148 19.5172 17.1468 19.5223 17.1455 19.5273C17.1001 19.6672 17.0522 19.8059 16.9993 19.942C16.959 20.0479 16.9174 20.1513 16.872 20.2546C16.7875 20.4488 16.6943 20.6378 16.5947 20.8219C15.9014 22.105 14.8464 23.1639 13.5657 23.8622C12.8926 22.8966 12.0266 22.042 10.9804 21.3588C8.51868 19.7504 5.58424 19.4391 2.98258 20.2546C2.39393 20.4387 1.82166 20.6807 1.27587 20.9782C1.53049 21.5681 1.84309 22.1265 2.20737 22.6471C3.91661 25.0912 6.7502 26.6882 9.95817 26.6882C10.9237 26.6882 11.8565 26.5433 12.7338 26.2748C13.3502 26.0857 13.9388 25.8349 14.4934 25.5311C16.5594 24.3991 18.1552 22.5185 18.9178 20.2546C19.0476 19.8677 19.1535 19.4693 19.2329 19.0622C19.2468 18.9929 19.2594 18.9236 19.2707 18.853C19.2707 18.8492 19.272 18.8467 19.272 18.8429C19.2833 18.7609 19.2896 18.6778 19.2909 18.592C19.2922 18.5757 19.2922 18.5593 19.2922 18.5416C19.2922 18.4874 19.2909 18.4332 19.2858 18.3815H19.2871ZM9.95943 9.69419C12.3481 9.69419 14.4771 10.8047 15.8586 12.5366C13.9136 13.003 11.7872 12.698 9.98086 11.5181C9.28632 11.0644 8.69137 10.516 8.2023 9.90091C8.76574 9.76604 9.35439 9.69419 9.95943 9.69419ZM5.39265 6.81521C6.14264 4.79212 7.67163 3.28078 9.51195 2.49927C9.43128 4.71397 8.38129 6.8732 6.46029 8.29378C5.97374 8.65428 5.45693 8.94545 4.925 9.17234C4.95147 8.38705 5.10399 7.59294 5.39265 6.81521ZM9.95943 24.7798C7.57079 24.7798 5.44181 23.6693 4.0603 21.9374C6.00525 21.471 8.13171 21.7761 9.938 22.9559C10.6325 23.4097 11.2275 23.958 11.7166 24.5731C11.1531 24.708 10.5645 24.7798 9.95943 24.7798Z" fill="white"/>
</svg>
