<svg width="77" height="30" viewBox="0 0 77 30" fill="none" xmlns="http://www.w3.org/2000/svg">
<path d="M14.6917 1.86407C14.9308 1.726 15.2259 1.72604 15.4651 1.86407L26.3157 8.12872C26.5549 8.26682 26.7024 8.52245 26.7024 8.79865V21.3279C26.7024 21.6041 26.5549 21.8598 26.3157 21.9979L15.4651 28.2625C15.2259 28.4006 14.9308 28.4006 14.6917 28.2625L3.84106 21.9979C3.60187 21.8598 3.45435 21.6041 3.45435 21.3279L3.45435 8.79865C3.45435 8.52245 3.60187 8.26682 3.84106 8.12872L14.6917 1.86407Z" stroke="white" stroke-width="0.309237"/>
<path d="M13.6381 14.0204C14.1556 14.3427 14.8257 13.985 14.8284 13.3847L14.8651 4.63351C14.868 3.92078 13.9682 3.58007 13.4957 4.11504L11.0325 6.90441C10.8757 7.08206 10.6625 7.20324 10.4272 7.24881L6.49315 8.01128C5.80449 8.14469 5.64212 9.03985 6.2393 9.41183L13.6381 14.0204Z" stroke="white" stroke-width="0.309237"/>
<path d="M10.5928 5.98949C10.4629 6.3962 10.0284 6.62038 9.62165 6.49049L7.72455 5.88462C7.31791 5.75468 7.09368 5.32014 7.22354 4.91346L7.82941 3.01636C7.95931 2.6097 8.39389 2.38556 8.80057 2.51536L10.6977 3.12123C11.1044 3.25112 11.3286 3.68567 11.1987 4.09239L10.5928 5.98949Z" fill="#080808" stroke="white" stroke-width="0.309237"/>
<path d="M16.5191 14.0204C16.0016 14.3427 15.3315 13.985 15.3288 13.3847L15.2921 4.63351C15.2892 3.92078 16.189 3.58007 16.6615 4.11504L19.1247 6.90441C19.2816 7.08206 19.4947 7.20324 19.73 7.24881L23.6641 8.01128C24.3527 8.14469 24.5151 9.03985 23.9179 9.41183L16.5191 14.0204Z" stroke="white" stroke-width="0.309237"/>
<path d="M19.5644 5.98949C19.6943 6.3962 20.1289 6.62038 20.5356 6.49049L22.4327 5.88462C22.8393 5.75468 23.0635 5.32014 22.9337 4.91346L22.3278 3.01636C22.1979 2.6097 21.7633 2.38556 21.3567 2.51536L19.4596 3.12123C19.0528 3.25112 18.8287 3.68567 18.9585 4.09239L19.5644 5.98949Z" fill="#080808" stroke="white" stroke-width="0.309237"/>
<path d="M16.5191 16.1062C16.0016 15.7839 15.3315 16.1416 15.3288 16.7419L15.2921 25.4931C15.2892 26.2058 16.189 26.5465 16.6615 26.0115L19.1247 23.2222C19.2816 23.0445 19.4947 22.9234 19.73 22.8778L23.6641 22.1153C24.3527 21.9819 24.5151 21.0867 23.9179 20.7148L16.5191 16.1062Z" stroke="white" stroke-width="0.309237"/>
<path d="M19.5644 24.1372C19.6943 23.7304 20.1289 23.5063 20.5356 23.6362L22.4327 24.242C22.8393 24.372 23.0635 24.8065 22.9337 25.2132L22.3278 27.1103C22.1979 27.5169 21.7633 27.7411 21.3567 27.6113L19.4596 27.0054C19.0528 26.8755 18.8287 26.441 18.9585 26.0343L19.5644 24.1372Z" fill="#080808" stroke="white" stroke-width="0.309237"/>
<path d="M13.6381 15.9703C14.1556 15.648 14.8257 16.0057 14.8284 16.6059L14.8651 25.3572C14.8681 26.0699 13.9682 26.4106 13.4957 25.8756L11.0325 23.0862C10.8757 22.9086 10.6625 22.7874 10.4272 22.7419L6.49315 21.9794C5.80449 21.846 5.64212 20.9508 6.2393 20.5788L13.6381 15.9703Z" stroke="white" stroke-width="0.309237"/>
<path d="M10.5926 24.0011C10.4627 23.5944 10.0281 23.3702 9.62141 23.5001L7.7243 24.106C7.31767 24.2359 7.09344 24.6705 7.2233 25.0771L7.82917 26.9742C7.95906 27.3809 8.39365 27.605 8.80033 27.4752L10.6974 26.8694C11.1042 26.7395 11.3283 26.3049 11.1984 25.8982L10.5926 24.0011Z" fill="#080808" stroke="white" stroke-width="0.309237"/>
<path d="M16.7833 14.3443C16.2454 14.6313 16.2202 15.3904 16.7386 15.6929L24.2991 20.1003C24.9148 20.4592 25.6598 19.8503 25.4328 19.1736L24.2487 15.6458C24.1733 15.4211 24.1749 15.1759 24.2531 14.9494L25.5598 11.1611C25.7886 10.498 25.0946 9.9098 24.4738 10.241L16.7833 14.3443Z" stroke="white" stroke-width="0.309237"/>
<path d="M25.2609 15.7223C24.9737 15.4065 24.9968 14.918 25.3126 14.6308L26.7859 13.2908C27.1017 13.0036 27.5902 13.0267 27.8774 13.3425L29.2174 14.8157C29.5047 15.1315 29.4815 15.62 29.1657 15.9073L27.6925 17.2473C27.3766 17.5345 26.8882 17.5114 26.6009 17.1956L25.2609 15.7223Z" fill="#080808" stroke="white" stroke-width="0.309237"/>
<path d="M13.3017 14.3443C13.8395 14.6313 13.8648 15.3904 13.3463 15.6929L5.78589 20.1003C5.17012 20.4592 4.42514 19.8503 4.6522 19.1736L5.83627 15.6458C5.91167 15.4211 5.91003 15.1759 5.83187 14.9494L4.52516 11.1611C4.29636 10.498 4.99041 9.9098 5.61114 10.241L13.3017 14.3443Z" stroke="white" stroke-width="0.309237"/>
<path d="M4.82379 15.7223C5.11106 15.4065 5.08794 14.918 4.77209 14.6308L3.29885 13.2908C2.983 13.0036 2.49456 13.0267 2.2073 13.3425L0.867292 14.8157C0.580053 15.1315 0.603241 15.62 0.918991 15.9073L2.39224 17.2473C2.70809 17.5345 3.1965 17.5114 3.48379 17.1956L4.82379 15.7223Z" fill="#080808" stroke="white" stroke-width="0.309237"/>
<mask id="path-14-outside-1_2714_53" maskUnits="userSpaceOnUse" x="31.5588" y="6.28632" width="46" height="13" fill="black">
<rect fill="white" x="31.5588" y="6.28632" width="46" height="13"/>
<path d="M37.4561 18.2863L32.5604 7.08716H34.8163L39.1839 17.2144H37.888L42.3037 7.08716H44.3835L39.5039 18.2863H37.4561ZM48.7641 18.3983C47.8148 18.3983 46.9829 18.2117 46.2683 17.8383C45.5643 17.4544 45.015 16.9318 44.6204 16.2705C44.2364 15.6092 44.0444 14.8572 44.0444 14.0146C44.0444 13.1614 44.2311 12.4094 44.6044 11.7588C44.9884 11.0975 45.511 10.5802 46.1723 10.2069C46.8442 9.83362 47.6068 9.64697 48.4601 9.64697C49.2921 9.64697 50.0333 9.82829 50.6839 10.1909C51.3346 10.5536 51.8465 11.0655 52.2198 11.7268C52.5931 12.3881 52.7798 13.1667 52.7798 14.0626C52.7798 14.148 52.7745 14.244 52.7638 14.3506C52.7638 14.4573 52.7585 14.5586 52.7478 14.6546H45.6283V13.3267H51.6919L50.9079 13.7427C50.9186 13.252 50.8173 12.8201 50.604 12.4468C50.3906 12.0735 50.0973 11.7801 49.724 11.5668C49.3614 11.3535 48.9401 11.2468 48.4601 11.2468C47.9695 11.2468 47.5375 11.3535 47.1642 11.5668C46.8016 11.7801 46.5136 12.0788 46.3003 12.4628C46.0976 12.8361 45.9963 13.2787 45.9963 13.7907V14.1106C45.9963 14.6226 46.1136 15.0759 46.3483 15.4705C46.5829 15.8652 46.9136 16.1691 47.3402 16.3825C47.7668 16.5958 48.2575 16.7024 48.8121 16.7024C49.2921 16.7024 49.724 16.6278 50.108 16.4785C50.492 16.3291 50.8333 16.0945 51.1319 15.7745L52.2038 17.0064C51.8199 17.4544 51.3346 17.801 50.7479 18.0463C50.172 18.281 49.5107 18.3983 48.7641 18.3983ZM57.9165 18.3983C56.9779 18.3983 56.2527 18.1583 55.7407 17.6784C55.2287 17.1877 54.9727 16.4678 54.9727 15.5185V7.8551H56.9726V15.4705C56.9726 15.8758 57.0739 16.1905 57.2766 16.4145C57.4899 16.6384 57.7832 16.7504 58.1565 16.7504C58.6045 16.7504 58.9778 16.6331 59.2764 16.3985L59.8364 17.8224C59.6017 18.0143 59.3138 18.1583 58.9724 18.2543C58.6311 18.3503 58.2792 18.3983 57.9165 18.3983ZM53.5649 11.4068V9.80696H59.2604V11.4068H53.5649ZM65.04 18.3983C64.1654 18.3983 63.3868 18.2117 62.7042 17.8383C62.0215 17.4544 61.4829 16.9318 61.0883 16.2705C60.6936 15.6092 60.4963 14.8572 60.4963 14.0146C60.4963 13.1614 60.6936 12.4094 61.0883 11.7588C61.4829 11.0975 62.0215 10.5802 62.7042 10.2069C63.3868 9.83362 64.1654 9.64697 65.04 9.64697C65.9253 9.64697 66.7092 9.83362 67.3918 10.2069C68.0851 10.5802 68.6237 11.0922 69.0077 11.7428C69.4023 12.3934 69.5996 13.1507 69.5996 14.0146C69.5996 14.8572 69.4023 15.6092 69.0077 16.2705C68.6237 16.9318 68.0851 17.4544 67.3918 17.8383C66.7092 18.2117 65.9253 18.3983 65.04 18.3983ZM65.04 16.6864C65.5306 16.6864 65.9679 16.5798 66.3519 16.3665C66.7359 16.1531 67.0345 15.8438 67.2478 15.4385C67.4718 15.0332 67.5838 14.5586 67.5838 14.0146C67.5838 13.46 67.4718 12.9854 67.2478 12.5907C67.0345 12.1854 66.7359 11.8761 66.3519 11.6628C65.9679 11.4495 65.536 11.3428 65.056 11.3428C64.5654 11.3428 64.1281 11.4495 63.7441 11.6628C63.3708 11.8761 63.0721 12.1854 62.8482 12.5907C62.6242 12.9854 62.5122 13.46 62.5122 14.0146C62.5122 14.5586 62.6242 15.0332 62.8482 15.4385C63.0721 15.8438 63.3708 16.1531 63.7441 16.3665C64.1281 16.5798 64.56 16.6864 65.04 16.6864ZM71.512 18.2863V9.74296H73.4159V12.0948L73.1919 11.4068C73.4479 10.8309 73.8478 10.3936 74.3918 10.0949C74.9464 9.79629 75.6344 9.64697 76.4556 9.64697V11.5508C76.3703 11.5295 76.2903 11.5188 76.2156 11.5188C76.141 11.5082 76.0663 11.5028 75.9917 11.5028C75.2344 11.5028 74.6318 11.7268 74.1838 12.1748C73.7358 12.6121 73.5118 13.268 73.5118 14.1426V18.2863H71.512Z"/>
</mask>
<path d="M37.4561 18.2863L36.9979 18.4866L37.129 18.7863H37.4561V18.2863ZM32.5604 7.08716V6.58716H31.7962L32.1023 7.28743L32.5604 7.08716ZM34.8163 7.08716L35.2754 6.88915L35.1451 6.58716H34.8163V7.08716ZM39.1839 17.2144V17.7144H39.9441L39.6431 17.0164L39.1839 17.2144ZM37.888 17.2144L37.4297 17.0146L37.1246 17.7144H37.888V17.2144ZM42.3037 7.08716V6.58716H41.9763L41.8454 6.88732L42.3037 7.08716ZM44.3835 7.08716L44.8419 7.28688L45.1468 6.58716H44.3835V7.08716ZM39.5039 18.2863V18.7863H39.8315L39.9623 18.486L39.5039 18.2863ZM37.4561 18.2863L37.9142 18.086L33.0186 6.88689L32.5604 7.08716L32.1023 7.28743L36.9979 18.4866L37.4561 18.2863ZM32.5604 7.08716V7.58716H34.8163V7.08716V6.58716H32.5604V7.08716ZM34.8163 7.08716L34.3571 7.28517L38.7248 17.4124L39.1839 17.2144L39.6431 17.0164L35.2754 6.88915L34.8163 7.08716ZM39.1839 17.2144V16.7144H37.888V17.2144V17.7144H39.1839V17.2144ZM37.888 17.2144L38.3464 17.4142L42.762 7.287L42.3037 7.08716L41.8454 6.88732L37.4297 17.0146L37.888 17.2144ZM42.3037 7.08716V7.58716H44.3835V7.08716V6.58716H42.3037V7.08716ZM44.3835 7.08716L43.9252 6.88744L39.0455 18.0866L39.5039 18.2863L39.9623 18.486L44.8419 7.28688L44.3835 7.08716ZM39.5039 18.2863V17.7863H37.4561V18.2863V18.7863H39.5039V18.2863ZM46.2683 17.8383L46.0288 18.2774L46.0368 18.2815L46.2683 17.8383ZM44.6204 16.2705L44.188 16.5216L44.191 16.5267L44.6204 16.2705ZM44.6044 11.7588L44.172 11.5077L44.1707 11.51L44.6044 11.7588ZM46.1723 10.2069L45.9295 9.76984L45.9265 9.77151L46.1723 10.2069ZM50.6839 10.1909L50.9274 9.75419L50.9274 9.75419L50.6839 10.1909ZM52.7638 14.3506L52.2663 14.3009L52.2638 14.3257V14.3506H52.7638ZM52.7478 14.6546V15.1546H53.1953L53.2447 14.7098L52.7478 14.6546ZM45.6283 14.6546H45.1283V15.1546H45.6283V14.6546ZM45.6283 13.3267V12.8267H45.1283V13.3267H45.6283ZM51.6919 13.3267L51.9262 13.7684L51.6919 12.8267V13.3267ZM50.9079 13.7427L50.408 13.7318L50.3895 14.5838L51.1423 14.1843L50.9079 13.7427ZM50.604 12.4468L50.1698 12.6948L50.1698 12.6948L50.604 12.4468ZM49.724 11.5668L49.4705 11.9978L49.4759 12.0009L49.724 11.5668ZM47.1642 11.5668L46.9161 11.1327L46.9107 11.1359L47.1642 11.5668ZM46.3003 12.4628L45.8632 12.2199L45.8609 12.2242L46.3003 12.4628ZM47.3402 16.3825L47.1166 16.8297L47.1166 16.8297L47.3402 16.3825ZM50.108 16.4785L50.2892 16.9445L50.2892 16.9445L50.108 16.4785ZM51.1319 15.7745L51.5091 15.4463L51.1449 15.0278L50.7664 15.4333L51.1319 15.7745ZM52.2038 17.0064L52.5835 17.3318L52.8645 17.004L52.581 16.6782L52.2038 17.0064ZM50.7479 18.0463L50.9366 18.5094L50.9408 18.5076L50.7479 18.0463ZM48.7641 18.3983V17.8983C47.8812 17.8983 47.1313 17.7251 46.4998 17.3952L46.2683 17.8383L46.0368 18.2815C46.8345 18.6983 47.7485 18.8983 48.7641 18.8983V18.3983ZM46.2683 17.8383L46.5077 17.3994C45.8789 17.0564 45.3966 16.5955 45.0498 16.0142L44.6204 16.2705L44.191 16.5267C44.6335 17.268 45.2498 17.8523 46.0289 18.2773L46.2683 17.8383ZM44.6204 16.2705L45.0528 16.0194C44.7175 15.442 44.5444 14.7783 44.5444 14.0146H44.0444H43.5444C43.5444 14.9362 43.7553 15.7764 44.188 16.5215L44.6204 16.2705ZM44.0444 14.0146H44.5444C44.5444 13.2365 44.7139 12.5726 45.0381 12.0076L44.6044 11.7588L44.1707 11.51C43.7483 12.2463 43.5444 13.0863 43.5444 14.0146H44.0444ZM44.6044 11.7588L45.0368 12.0099C45.3764 11.425 45.8349 10.9716 46.4181 10.6423L46.1723 10.2069L45.9265 9.77151C45.1871 10.1889 44.6003 10.7701 44.172 11.5077L44.6044 11.7588ZM46.1723 10.2069L46.4151 10.644C47.0049 10.3164 47.6823 10.147 48.4601 10.147V9.64697V9.14697C47.5314 9.14697 46.6836 9.35087 45.9295 9.76985L46.1723 10.2069ZM48.4601 9.64697V10.147C49.217 10.147 49.8727 10.3112 50.4405 10.6277L50.6839 10.1909L50.9274 9.75419C50.1939 9.34538 49.3671 9.14697 48.4601 9.14697V9.64697ZM50.6839 10.1909L50.4405 10.6277C51.0092 10.9446 51.4554 11.3898 51.7844 11.9726L52.2198 11.7268L52.6552 11.481C52.2377 10.7413 51.66 10.1625 50.9274 9.75419L50.6839 10.1909ZM52.2198 11.7268L51.7844 11.9726C52.1083 12.5464 52.2798 13.2373 52.2798 14.0626H52.7798H53.2798C53.2798 13.0961 53.0779 12.2298 52.6552 11.481L52.2198 11.7268ZM52.7798 14.0626H52.2798C52.2798 14.1278 52.2757 14.2068 52.2663 14.3009L52.7638 14.3506L53.2613 14.4004C53.2732 14.2812 53.2798 14.1681 53.2798 14.0626H52.7798ZM52.7638 14.3506H52.2638C52.2638 14.4407 52.2593 14.5235 52.2508 14.5994L52.7478 14.6546L53.2447 14.7098C53.2576 14.5937 53.2638 14.4738 53.2638 14.3506H52.7638ZM52.7478 14.6546V14.1546H45.6283V14.6546V15.1546H52.7478V14.6546ZM45.6283 14.6546H46.1283V13.3267H45.6283H45.1283V14.6546H45.6283ZM45.6283 13.3267V13.8267H51.6919V13.3267V12.8267H45.6283V13.3267ZM51.6919 13.3267L51.4575 12.885L50.6736 13.301L50.9079 13.7427L51.1423 14.1843L51.9262 13.7684L51.6919 13.3267ZM50.9079 13.7427L51.4078 13.7535C51.4202 13.1853 51.3025 12.6614 51.0381 12.1987L50.604 12.4468L50.1698 12.6948C50.3321 12.9788 50.417 13.3188 50.408 13.7318L50.9079 13.7427ZM50.604 12.4468L51.0381 12.1987C50.7805 11.7479 50.4229 11.3903 49.9721 11.1327L49.724 11.5668L49.4759 12.0009C49.7717 12.17 50.0008 12.399 50.1698 12.6948L50.604 12.4468ZM49.724 11.5668L49.9775 11.1359C49.5277 10.8713 49.0164 10.7468 48.4601 10.7468V11.2468V11.7468C48.8637 11.7468 49.195 11.8357 49.4705 11.9978L49.724 11.5668ZM48.4601 11.2468V10.7468C47.8949 10.7468 47.3751 10.8704 46.9161 11.1327L47.1642 11.5668L47.4123 12.0009C47.6999 11.8366 48.044 11.7468 48.4601 11.7468V11.2468ZM47.1642 11.5668L46.9107 11.1359C46.4677 11.3964 46.1178 11.7616 45.8632 12.2199L46.3003 12.4628L46.7374 12.7056C46.9093 12.396 47.1354 12.1639 47.4177 11.9978L47.1642 11.5668ZM46.3003 12.4628L45.8609 12.2242C45.6111 12.6844 45.4963 13.2124 45.4963 13.7907H45.9963H46.4963C46.4963 13.345 46.5842 12.9878 46.7397 12.7013L46.3003 12.4628ZM45.9963 13.7907H45.4963V14.1106H45.9963H46.4963V13.7907H45.9963ZM45.9963 14.1106H45.4963C45.4963 14.7019 45.6327 15.2455 45.9185 15.7261L46.3483 15.4705L46.778 15.215C46.5945 14.9063 46.4963 14.5433 46.4963 14.1106H45.9963ZM46.3483 15.4705L45.9185 15.7261C46.2041 16.2063 46.6078 16.5753 47.1166 16.8297L47.3402 16.3825L47.5638 15.9352C47.2193 15.763 46.9618 15.524 46.778 15.215L46.3483 15.4705ZM47.3402 16.3825L47.1166 16.8297C47.6231 17.0829 48.1925 17.2024 48.8121 17.2024V16.7024V16.2024C48.3225 16.2024 47.9105 16.1086 47.5638 15.9352L47.3402 16.3825ZM48.8121 16.7024V17.2024C49.344 17.2024 49.8388 17.1196 50.2892 16.9445L50.108 16.4785L49.9268 16.0124C49.6093 16.1359 49.2401 16.2024 48.8121 16.2024V16.7024ZM50.108 16.4785L50.2892 16.9445C50.7476 16.7662 51.1508 16.4871 51.4974 16.1157L51.1319 15.7745L50.7664 15.4333C50.5157 15.7019 50.2364 15.8921 49.9268 16.0124L50.108 16.4785ZM51.1319 15.7745L50.7547 16.1027L51.8266 17.3346L52.2038 17.0064L52.581 16.6782L51.5091 15.4463L51.1319 15.7745ZM52.2038 17.0064L51.8242 16.681C51.4949 17.0652 51.0754 17.3674 50.555 17.585L50.7479 18.0463L50.9408 18.5076C51.5937 18.2346 52.1448 17.8436 52.5835 17.3318L52.2038 17.0064ZM50.7479 18.0463L50.5593 17.5833C50.054 17.7892 49.4587 17.8983 48.7641 17.8983V18.3983V18.8983C49.5627 18.8983 50.29 18.7728 50.9366 18.5094L50.7479 18.0463ZM55.7407 17.6784L55.3947 18.0394L55.3987 18.0431L55.7407 17.6784ZM54.9727 7.8551V7.3551H54.4727V7.8551H54.9727ZM56.9726 7.8551H57.4726V7.3551H56.9726V7.8551ZM57.2766 16.4145L56.9057 16.75L56.9145 16.7593L57.2766 16.4145ZM59.2764 16.3985L59.7417 16.2155L59.4958 15.5902L58.9675 16.0053L59.2764 16.3985ZM59.8364 17.8224L60.153 18.2093L60.4351 17.9785L60.3017 17.6394L59.8364 17.8224ZM58.9724 18.2543L59.1078 18.7356L58.9724 18.2543ZM53.5649 11.4068H53.0649V11.9068H53.5649V11.4068ZM53.5649 9.80696V9.30696H53.0649V9.80696H53.5649ZM59.2604 9.80696H59.7604V9.30696H59.2604V9.80696ZM59.2604 11.4068V11.9068H59.7604V11.4068H59.2604ZM57.9165 18.3983V17.8983C57.0611 17.8983 56.4743 17.6807 56.0827 17.3136L55.7407 17.6784L55.3987 18.0431C56.031 18.6359 56.8947 18.8983 57.9165 18.8983V18.3983ZM55.7407 17.6784L56.0866 17.3174C55.703 16.9497 55.4727 16.3794 55.4727 15.5185H54.9727H54.4727C54.4727 16.5561 54.7544 17.4257 55.3947 18.0394L55.7407 17.6784ZM54.9727 15.5185H55.4727V7.8551H54.9727H54.4727V15.5185H54.9727ZM54.9727 7.8551V8.3551H56.9726V7.8551V7.3551H54.9727V7.8551ZM56.9726 7.8551H56.4726V15.4705H56.9726H57.4726V7.8551H56.9726ZM56.9726 15.4705H56.4726C56.4726 15.9568 56.595 16.4064 56.9058 16.7499L57.2766 16.4145L57.6473 16.079C57.5528 15.9745 57.4726 15.7949 57.4726 15.4705H56.9726ZM57.2766 16.4145L56.9145 16.7593C57.2413 17.1025 57.6768 17.2504 58.1565 17.2504V16.7504V16.2504C57.8896 16.2504 57.7384 16.1744 57.6386 16.0696L57.2766 16.4145ZM58.1565 16.7504V17.2504C58.6956 17.2504 59.1835 17.1074 59.5853 16.7916L59.2764 16.3985L58.9675 16.0053C58.7721 16.1588 58.5134 16.2504 58.1565 16.2504V16.7504ZM59.2764 16.3985L58.8111 16.5814L59.3711 18.0053L59.8364 17.8224L60.3017 17.6394L59.7417 16.2155L59.2764 16.3985ZM59.8364 17.8224L59.5198 17.4354C59.3466 17.577 59.1232 17.6925 58.8371 17.773L58.9724 18.2543L59.1078 18.7356C59.5043 18.6241 59.8568 18.4517 60.153 18.2093L59.8364 17.8224ZM58.9724 18.2543L58.8371 17.773C58.5408 17.8563 58.2345 17.8983 57.9165 17.8983V18.3983V18.8983C58.3239 18.8983 58.7215 18.8443 59.1078 18.7356L58.9724 18.2543ZM53.5649 11.4068H54.0649V9.80696H53.5649H53.0649V11.4068H53.5649ZM53.5649 9.80696V10.307H59.2604V9.80696V9.30696H53.5649V9.80696ZM59.2604 9.80696H58.7604V11.4068H59.2604H59.7604V9.80696H59.2604ZM59.2604 11.4068V10.9068H53.5649V11.4068V11.9068H59.2604V11.4068ZM62.7042 17.8383L62.459 18.2742L62.4643 18.277L62.7042 17.8383ZM61.0883 16.2705L60.6589 16.5267L60.6589 16.5267L61.0883 16.2705ZM61.0883 11.7588L61.5158 12.0181L61.5176 12.015L61.0883 11.7588ZM62.7042 10.2069L62.9441 10.6456L62.9441 10.6456L62.7042 10.2069ZM67.3918 10.2069L67.1519 10.6456L67.1548 10.6472L67.3918 10.2069ZM69.0077 11.7428L68.5771 11.997L68.5802 12.0021L69.0077 11.7428ZM69.0077 16.2705L68.5783 16.0142L68.5753 16.0194L69.0077 16.2705ZM67.3918 17.8383L67.6317 18.277L67.6341 18.2757L67.3918 17.8383ZM66.3519 16.3665L66.1091 15.9294L66.1091 15.9294L66.3519 16.3665ZM67.2478 15.4385L66.8101 15.1966L66.8054 15.2057L67.2478 15.4385ZM67.2478 12.5907L66.8054 12.8236L66.8091 12.8306L66.813 12.8375L67.2478 12.5907ZM66.3519 11.6628L66.5947 11.2257L66.5947 11.2257L66.3519 11.6628ZM63.7441 11.6628L63.5012 11.2257L63.496 11.2287L63.7441 11.6628ZM62.8482 12.5907L63.283 12.8376L63.2858 12.8326L62.8482 12.5907ZM62.8482 15.4385L62.4105 15.6804L62.4105 15.6804L62.8482 15.4385ZM63.7441 16.3665L63.496 16.8006L63.5013 16.8035L63.7441 16.3665ZM65.04 18.3983V17.8983C64.2387 17.8983 63.5444 17.728 62.9441 17.3997L62.7042 17.8383L62.4643 18.277C63.2292 18.6954 64.0921 18.8983 65.04 18.8983V18.3983ZM62.7042 17.8383L62.9493 17.4026C62.3413 17.0606 61.8668 16.5993 61.5176 16.0142L61.0883 16.2705L60.6589 16.5267C61.0991 17.2642 61.7018 17.8482 62.459 18.2741L62.7042 17.8383ZM61.0883 16.2705L61.5176 16.0142C61.1735 15.4376 60.9963 14.7758 60.9963 14.0146H60.4963H59.9963C59.9963 14.9387 60.2138 15.7807 60.6589 16.5267L61.0883 16.2705ZM60.4963 14.0146H60.9963C60.9963 13.2414 61.1741 12.5814 61.5158 12.0181L61.0883 11.7588L60.6608 11.4995C60.2131 12.2375 59.9963 13.0813 59.9963 14.0146H60.4963ZM61.0883 11.7588L61.5176 12.015C61.8661 11.4312 62.3389 10.9766 62.9441 10.6456L62.7042 10.2069L62.4643 9.76824C61.7042 10.1839 61.0998 10.7638 60.6589 11.5026L61.0883 11.7588ZM62.7042 10.2069L62.9441 10.6456C63.5444 10.3173 64.2387 10.147 65.04 10.147V9.64697V9.14697C64.0921 9.14697 63.2292 9.34992 62.4643 9.76824L62.7042 10.2069ZM65.04 9.64697V10.147C65.8531 10.147 66.5525 10.3178 67.1519 10.6456L67.3918 10.2069L67.6317 9.76824C66.8659 9.34944 65.9974 9.14697 65.04 9.14697V9.64697ZM67.3918 10.2069L67.1548 10.6472C67.7713 10.9792 68.2415 11.4282 68.5771 11.9969L69.0077 11.7428L69.4383 11.4887C69.006 10.7561 68.3989 10.1813 67.6289 9.76669L67.3918 10.2069ZM69.0077 11.7428L68.5802 12.0021C68.9212 12.5644 69.0996 13.2295 69.0996 14.0146H69.5996H70.0996C70.0996 13.0719 69.8834 12.2225 69.4352 11.4835L69.0077 11.7428ZM69.5996 14.0146H69.0996C69.0996 14.7758 68.9224 15.4376 68.5783 16.0142L69.0077 16.2705L69.437 16.5267C69.8822 15.7807 70.0996 14.9387 70.0996 14.0146H69.5996ZM69.0077 16.2705L68.5753 16.0194C68.2384 16.5996 67.7668 17.0591 67.1496 17.401L67.3918 17.8383L67.6341 18.2757C68.4034 17.8497 69.009 17.2639 69.4401 16.5215L69.0077 16.2705ZM67.3918 17.8383L67.1519 17.3997C66.5525 17.7275 65.8531 17.8983 65.04 17.8983V18.3983V18.8983C65.9974 18.8983 66.8659 18.6958 67.6317 18.277L67.3918 17.8383ZM65.04 16.6864V17.1864C65.6055 17.1864 66.1281 17.0628 66.5947 16.8035L66.3519 16.3665L66.1091 15.9294C65.8078 16.0968 65.4558 16.1864 65.04 16.1864V16.6864ZM66.3519 16.3665L66.5947 16.8035C67.0674 16.5409 67.4337 16.1589 67.6903 15.6714L67.2478 15.4385L66.8054 15.2057C66.6353 15.5288 66.4043 15.7654 66.1091 15.9294L66.3519 16.3665ZM67.2478 15.4385L67.6854 15.6804C67.957 15.1891 68.0838 14.6284 68.0838 14.0146H67.5838H67.0838C67.0838 14.4888 66.9866 14.8774 66.8102 15.1967L67.2478 15.4385ZM67.5838 14.0146H68.0838C68.0838 13.3926 67.9579 12.8289 67.6827 12.3439L67.2478 12.5907L66.813 12.8375C66.9857 13.1419 67.0838 13.5274 67.0838 14.0146H67.5838ZM67.2478 12.5907L67.6903 12.3579C67.4337 11.8704 67.0674 11.4884 66.5947 11.2257L66.3519 11.6628L66.1091 12.0999C66.4043 12.2639 66.6353 12.5005 66.8054 12.8236L67.2478 12.5907ZM66.3519 11.6628L66.5947 11.2257C66.1297 10.9674 65.6128 10.8428 65.056 10.8428V11.3428V11.8428C65.4591 11.8428 65.8061 11.9316 66.1091 12.0999L66.3519 11.6628ZM65.056 11.3428V10.8428C64.4905 10.8428 63.9679 10.9665 63.5013 11.2257L63.7441 11.6628L63.9869 12.0999C64.2882 11.9325 64.6402 11.8428 65.056 11.8428V11.3428ZM63.7441 11.6628L63.496 11.2287C63.037 11.491 62.6753 11.8698 62.4105 12.3489L62.8482 12.5907L63.2858 12.8326C63.4689 12.5011 63.7046 12.2613 63.9922 12.0969L63.7441 11.6628ZM62.8482 12.5907L62.4133 12.3439C62.1381 12.8289 62.0122 13.3926 62.0122 14.0146H62.5122H63.0122C63.0122 13.5274 63.1103 13.1419 63.283 12.8375L62.8482 12.5907ZM62.5122 14.0146H62.0122C62.0122 14.6284 62.139 15.1891 62.4105 15.6804L62.8482 15.4385L63.2858 15.1967C63.1093 14.8774 63.0122 14.4888 63.0122 14.0146H62.5122ZM62.8482 15.4385L62.4105 15.6804C62.6753 16.1595 63.037 16.5383 63.496 16.8006L63.7441 16.3665L63.9922 15.9323C63.7046 15.768 63.4689 15.5281 63.2858 15.1967L62.8482 15.4385ZM63.7441 16.3665L63.5013 16.8035C63.9663 17.0619 64.4831 17.1864 65.04 17.1864V16.6864V16.1864C64.6369 16.1864 64.2898 16.0977 63.9869 15.9294L63.7441 16.3665ZM71.512 18.2863H71.012V18.7863H71.512V18.2863ZM71.512 9.74296V9.24296H71.012V9.74296H71.512ZM73.4159 9.74296H73.9159V9.24296H73.4159V9.74296ZM73.4159 12.0948L72.9404 12.2496L73.9159 12.0948H73.4159ZM73.1919 11.4068L72.735 11.2038L72.657 11.3791L72.7164 11.5616L73.1919 11.4068ZM74.3918 10.0949L74.1547 9.65468L74.1512 9.65664L74.3918 10.0949ZM76.4556 9.64697H76.9556V9.14697H76.4556V9.64697ZM76.4556 11.5508L76.3344 12.0359L76.9556 12.1912V11.5508H76.4556ZM76.2156 11.5188L76.1449 12.0138L76.1801 12.0188H76.2156V11.5188ZM74.1838 12.1748L74.5331 12.5326L74.5373 12.5283L74.1838 12.1748ZM73.5118 18.2863V18.7863H74.0118V18.2863H73.5118ZM71.512 18.2863H72.012V9.74296H71.512H71.012V18.2863H71.512ZM71.512 9.74296V10.243H73.4159V9.74296V9.24296H71.512V9.74296ZM73.4159 9.74296H72.9159V12.0948H73.4159H73.9159V9.74296H73.4159ZM73.4159 12.0948L73.8913 11.94L73.6673 11.252L73.1919 11.4068L72.7164 11.5616L72.9404 12.2496L73.4159 12.0948ZM73.1919 11.4068L73.6488 11.6099C73.8611 11.1322 74.1859 10.7783 74.6324 10.5332L74.3918 10.0949L74.1512 9.65664C73.5097 10.0088 73.0346 10.5295 72.735 11.2038L73.1919 11.4068ZM74.3918 10.0949L74.6288 10.5352C75.0918 10.2859 75.6927 10.147 76.4556 10.147V9.64697V9.14697C75.576 9.14697 74.801 9.30671 74.1547 9.6547L74.3918 10.0949ZM76.4556 9.64697H75.9556V11.5508H76.4556H76.9556V9.64697H76.4556ZM76.4556 11.5508L76.5769 11.0658C76.4587 11.0362 76.3377 11.0188 76.2156 11.0188V11.5188V12.0188C76.2429 12.0188 76.2819 12.0228 76.3344 12.0359L76.4556 11.5508ZM76.2156 11.5188L76.2864 11.0239C76.1885 11.0099 76.0902 11.0028 75.9917 11.0028V11.5028V12.0028C76.0424 12.0028 76.0935 12.0064 76.1449 12.0138L76.2156 11.5188ZM75.9917 11.5028V11.0028C75.1295 11.0028 74.3899 11.2615 73.8302 11.8212L74.1838 12.1748L74.5373 12.5283C74.8736 12.1921 75.3392 12.0028 75.9917 12.0028V11.5028ZM74.1838 12.1748L73.8345 11.817C73.2571 12.3807 73.0118 13.1879 73.0118 14.1426H73.5118H74.0118C74.0118 13.3482 74.2145 12.8435 74.5331 12.5326L74.1838 12.1748ZM73.5118 14.1426H73.0118V18.2863H73.5118H74.0118V14.1426H73.5118ZM73.5118 18.2863V17.7863H71.512V18.2863V18.7863H73.5118V18.2863Z" fill="white" mask="url(#path-14-outside-1_2714_53)"/>
<path d="M38.2072 23.8404L37.2429 21.6628H37.4917L38.3939 23.7128H38.257L39.1654 21.6628H39.3987L38.4343 23.8404H38.2072ZM40.567 23.8404V23.4795L40.5577 23.4204V22.8169C40.5577 22.678 40.5183 22.5712 40.4395 22.4965C40.3627 22.4218 40.2476 22.3845 40.0941 22.3845C39.9884 22.3845 39.8878 22.4021 39.7924 22.4374C39.697 22.4726 39.6161 22.5193 39.5497 22.5774L39.4502 22.4125C39.5332 22.342 39.6327 22.2881 39.7488 22.2507C39.865 22.2113 39.9873 22.1916 40.1159 22.1916C40.3275 22.1916 40.4903 22.2445 40.6043 22.3503C40.7205 22.454 40.7785 22.6126 40.7785 22.8262V23.8404H40.567ZM40.0039 23.8559C39.8816 23.8559 39.7748 23.8362 39.6835 23.7968C39.5943 23.7554 39.5259 23.6994 39.4782 23.6289C39.4305 23.5563 39.4066 23.4733 39.4066 23.38C39.4066 23.295 39.4263 23.2182 39.4658 23.1498C39.5072 23.0793 39.5736 23.0233 39.6648 22.9818C39.7582 22.9382 39.8826 22.9165 40.0382 22.9165H40.6012V23.0813H40.0444C39.8868 23.0813 39.7768 23.1093 39.7146 23.1653C39.6545 23.2213 39.6244 23.2908 39.6244 23.3738C39.6244 23.4671 39.6607 23.5417 39.7333 23.5977C39.8059 23.6537 39.9075 23.6817 40.0382 23.6817C40.1626 23.6817 40.2694 23.6537 40.3586 23.5977C40.4498 23.5397 40.5162 23.4567 40.5577 23.3489L40.6074 23.5013C40.566 23.6092 40.4934 23.6952 40.3897 23.7595C40.2881 23.8238 40.1595 23.8559 40.0039 23.8559ZM42.2122 22.1916C42.3449 22.1916 42.461 22.2176 42.5606 22.2694C42.6622 22.3192 42.741 22.3959 42.797 22.4996C42.8551 22.6033 42.8841 22.734 42.8841 22.8916V23.8404H42.6632V22.9134C42.6632 22.7412 42.6197 22.6116 42.5326 22.5245C42.4476 22.4353 42.3273 22.3907 42.1717 22.3907C42.0556 22.3907 41.954 22.4146 41.8669 22.4623C41.7818 22.5079 41.7155 22.5753 41.6678 22.6645C41.6221 22.7516 41.5993 22.8574 41.5993 22.9818V23.8404H41.3785V22.2072H41.59V22.6551L41.5558 22.5712C41.6076 22.4529 41.6906 22.3607 41.8046 22.2943C41.9187 22.2258 42.0546 22.1916 42.2122 22.1916ZM44.1776 24.4595C44.0282 24.4595 43.8851 24.4377 43.7483 24.3941C43.6114 24.3506 43.5004 24.2884 43.4154 24.2075L43.5274 24.0395C43.6041 24.1079 43.6985 24.1619 43.8105 24.2013C43.9245 24.2427 44.0448 24.2635 44.1713 24.2635C44.3787 24.2635 44.5312 24.2147 44.6286 24.1173C44.7261 24.0219 44.7749 23.8725 44.7749 23.6693V23.2618L44.806 22.9818L44.7842 22.7018V22.2072H44.9957V23.6413C44.9957 23.9233 44.9262 24.1297 44.7873 24.2604C44.6504 24.3931 44.4472 24.4595 44.1776 24.4595ZM44.1371 23.7782C43.9816 23.7782 43.8416 23.745 43.7172 23.6786C43.5927 23.6102 43.4942 23.5158 43.4216 23.3955C43.3511 23.2753 43.3159 23.1373 43.3159 22.9818C43.3159 22.8262 43.3511 22.6894 43.4216 22.5712C43.4942 22.4509 43.5927 22.3575 43.7172 22.2912C43.8416 22.2248 43.9816 22.1916 44.1371 22.1916C44.2823 22.1916 44.413 22.2217 44.5291 22.2818C44.6452 22.342 44.7375 22.4312 44.806 22.5494C44.8744 22.6676 44.9086 22.8117 44.9086 22.9818C44.9086 23.1519 44.8744 23.296 44.806 23.4142C44.7375 23.5324 44.6452 23.6226 44.5291 23.6848C44.413 23.7471 44.2823 23.7782 44.1371 23.7782ZM44.1589 23.5822C44.2792 23.5822 44.386 23.5573 44.4793 23.5075C44.5726 23.4557 44.6463 23.3852 44.7002 23.296C44.7541 23.2047 44.7811 23.1 44.7811 22.9818C44.7811 22.8636 44.7541 22.7599 44.7002 22.6707C44.6463 22.5815 44.5726 22.512 44.4793 22.4623C44.386 22.4104 44.2792 22.3845 44.1589 22.3845C44.0407 22.3845 43.9339 22.4104 43.8385 22.4623C43.7452 22.512 43.6715 22.5815 43.6176 22.6707C43.5658 22.7599 43.5398 22.8636 43.5398 22.9818C43.5398 23.1 43.5658 23.2047 43.6176 23.296C43.6715 23.3852 43.7452 23.4557 43.8385 23.5075C43.9339 23.5573 44.0407 23.5822 44.1589 23.5822ZM46.2854 23.8559C46.1464 23.8559 46.0251 23.83 45.9214 23.7782C45.8177 23.7263 45.7369 23.6486 45.6788 23.5449C45.6228 23.4412 45.5948 23.3115 45.5948 23.156V22.2072H45.8157V23.1311C45.8157 23.3053 45.8582 23.437 45.9432 23.5262C46.0303 23.6133 46.1516 23.6569 46.3072 23.6569C46.4212 23.6569 46.5198 23.634 46.6027 23.5884C46.6877 23.5407 46.752 23.4723 46.7956 23.3831C46.8412 23.2939 46.864 23.1871 46.864 23.0627V22.2072H47.0849V23.8404H46.8734V23.3924L46.9076 23.4733C46.8557 23.5936 46.7748 23.688 46.6649 23.7564C46.5571 23.8228 46.4306 23.8559 46.2854 23.8559ZM48.7239 23.8404V23.4795L48.7146 23.4204V22.8169C48.7146 22.678 48.6752 22.5712 48.5964 22.4965C48.5197 22.4218 48.4046 22.3845 48.2511 22.3845C48.1453 22.3845 48.0447 22.4021 47.9493 22.4374C47.8539 22.4726 47.773 22.5193 47.7067 22.5774L47.6071 22.4125C47.6901 22.342 47.7896 22.2881 47.9058 22.2507C48.0219 22.2113 48.1443 22.1916 48.2729 22.1916C48.4844 22.1916 48.6472 22.2445 48.7613 22.3503C48.8774 22.454 48.9355 22.6126 48.9355 22.8262V23.8404H48.7239ZM48.1609 23.8559C48.0385 23.8559 47.9317 23.8362 47.8405 23.7968C47.7513 23.7554 47.6828 23.6994 47.6351 23.6289C47.5874 23.5563 47.5636 23.4733 47.5636 23.38C47.5636 23.295 47.5833 23.2182 47.6227 23.1498C47.6642 23.0793 47.7305 23.0233 47.8218 22.9818C47.9151 22.9382 48.0395 22.9165 48.1951 22.9165H48.7582V23.0813H48.2013C48.0437 23.0813 47.9338 23.1093 47.8716 23.1653C47.8114 23.2213 47.7813 23.2908 47.7813 23.3738C47.7813 23.4671 47.8176 23.5417 47.8902 23.5977C47.9628 23.6537 48.0644 23.6817 48.1951 23.6817C48.3195 23.6817 48.4263 23.6537 48.5155 23.5977C48.6068 23.5397 48.6731 23.4567 48.7146 23.3489L48.7644 23.5013C48.7229 23.6092 48.6503 23.6952 48.5466 23.7595C48.445 23.8238 48.3164 23.8559 48.1609 23.8559ZM49.5354 23.8404V22.2072H49.7469V22.652L49.7252 22.5743C49.7708 22.4498 49.8475 22.3555 49.9554 22.2912C50.0632 22.2248 50.197 22.1916 50.3567 22.1916V22.4063C50.3484 22.4063 50.3401 22.4063 50.3318 22.4063C50.3235 22.4042 50.3152 22.4032 50.3069 22.4032C50.1348 22.4032 49.9999 22.4561 49.9025 22.5618C49.805 22.6655 49.7563 22.8138 49.7563 23.0067V23.8404H49.5354ZM51.3947 23.8559C51.2391 23.8559 51.0991 23.8207 50.9747 23.7502C50.8523 23.6797 50.7559 23.5822 50.6854 23.4578C50.6149 23.3312 50.5796 23.1861 50.5796 23.0222C50.5796 22.8563 50.6149 22.7111 50.6854 22.5867C50.7559 22.4623 50.8523 22.3658 50.9747 22.2974C51.0991 22.2269 51.2391 22.1916 51.3947 22.1916C51.5378 22.1916 51.6653 22.2238 51.7773 22.2881C51.8914 22.3524 51.9816 22.4467 52.048 22.5712C52.1164 22.6935 52.1506 22.8439 52.1506 23.0222C52.1506 23.1985 52.1174 23.3489 52.0511 23.4733C51.9847 23.5977 51.8945 23.6931 51.7804 23.7595C51.6684 23.8238 51.5398 23.8559 51.3947 23.8559ZM51.4102 23.66C51.5264 23.66 51.6301 23.634 51.7213 23.5822C51.8146 23.5283 51.8872 23.4536 51.9391 23.3582C51.993 23.2607 52.02 23.1487 52.02 23.0222C52.02 22.8936 51.993 22.7817 51.9391 22.6863C51.8872 22.5909 51.8146 22.5172 51.7213 22.4654C51.6301 22.4115 51.5264 22.3845 51.4102 22.3845C51.2962 22.3845 51.1935 22.4115 51.1023 22.4654C51.011 22.5172 50.9384 22.5909 50.8845 22.6863C50.8306 22.7817 50.8036 22.8936 50.8036 23.0222C50.8036 23.1487 50.8306 23.2607 50.8845 23.3582C50.9384 23.4536 51.011 23.5283 51.1023 23.5822C51.1935 23.634 51.2962 23.66 51.4102 23.66ZM52.0262 23.8404V23.3489L52.048 23.0191L52.0169 22.6894V21.5321H52.2377V23.8404H52.0262ZM53.8763 23.8404V23.4795L53.867 23.4204V22.8169C53.867 22.678 53.8276 22.5712 53.7488 22.4965C53.672 22.4218 53.5569 22.3845 53.4035 22.3845C53.2977 22.3845 53.1971 22.4021 53.1017 22.4374C53.0063 22.4726 52.9254 22.5193 52.8591 22.5774L52.7595 22.4125C52.8425 22.342 52.942 22.2881 53.0582 22.2507C53.1743 22.2113 53.2967 22.1916 53.4253 22.1916C53.6368 22.1916 53.7996 22.2445 53.9137 22.3503C54.0298 22.454 54.0879 22.6126 54.0879 22.8262V23.8404H53.8763ZM53.3133 23.8559C53.1909 23.8559 53.0841 23.8362 52.9928 23.7968C52.9037 23.7554 52.8352 23.6994 52.7875 23.6289C52.7398 23.5563 52.716 23.4733 52.716 23.38C52.716 23.295 52.7357 23.2182 52.7751 23.1498C52.8166 23.0793 52.8829 23.0233 52.9742 22.9818C53.0675 22.9382 53.1919 22.9165 53.3475 22.9165H53.9105V23.0813H53.3537C53.1961 23.0813 53.0862 23.1093 53.0239 23.1653C52.9638 23.2213 52.9337 23.2908 52.9337 23.3738C52.9337 23.4671 52.97 23.5417 53.0426 23.5977C53.1152 23.6537 53.2168 23.6817 53.3475 23.6817C53.4719 23.6817 53.5787 23.6537 53.6679 23.5977C53.7592 23.5397 53.8255 23.4567 53.867 23.3489L53.9168 23.5013C53.8753 23.6092 53.8027 23.6952 53.699 23.7595C53.5974 23.8238 53.4688 23.8559 53.3133 23.8559ZM56.5254 23.8404V23.4795L56.5161 23.4204V22.8169C56.5161 22.678 56.4767 22.5712 56.3979 22.4965C56.3212 22.4218 56.2061 22.3845 56.0526 22.3845C55.9468 22.3845 55.8462 22.4021 55.7508 22.4374C55.6554 22.4726 55.5745 22.5193 55.5082 22.5774L55.4086 22.4125C55.4916 22.342 55.5911 22.2881 55.7073 22.2507C55.8234 22.2113 55.9458 22.1916 56.0744 22.1916C56.2859 22.1916 56.4487 22.2445 56.5628 22.3503C56.6789 22.454 56.737 22.6126 56.737 22.8262V23.8404H56.5254ZM55.9624 23.8559C55.84 23.8559 55.7332 23.8362 55.6419 23.7968C55.5528 23.7554 55.4843 23.6994 55.4366 23.6289C55.3889 23.5563 55.3651 23.4733 55.3651 23.38C55.3651 23.295 55.3848 23.2182 55.4242 23.1498C55.4657 23.0793 55.532 23.0233 55.6233 22.9818C55.7166 22.9382 55.841 22.9165 55.9966 22.9165H56.5597V23.0813H56.0028C55.8452 23.0813 55.7353 23.1093 55.6731 23.1653C55.6129 23.2213 55.5828 23.2908 55.5828 23.3738C55.5828 23.4671 55.6191 23.5417 55.6917 23.5977C55.7643 23.6537 55.8659 23.6817 55.9966 23.6817C56.121 23.6817 56.2278 23.6537 56.317 23.5977C56.4083 23.5397 56.4746 23.4567 56.5161 23.3489L56.5659 23.5013C56.5244 23.6092 56.4518 23.6952 56.3481 23.7595C56.2465 23.8238 56.1179 23.8559 55.9624 23.8559ZM58.0151 23.8559C57.8533 23.8559 57.7081 23.8207 57.5795 23.7502C57.453 23.6776 57.3535 23.5791 57.2809 23.4546C57.2083 23.3281 57.172 23.184 57.172 23.0222C57.172 22.8584 57.2083 22.7143 57.2809 22.5898C57.3535 22.4654 57.453 22.3679 57.5795 22.2974C57.7081 22.2269 57.8533 22.1916 58.0151 22.1916C58.154 22.1916 58.2795 22.2186 58.3915 22.2725C58.5035 22.3264 58.5916 22.4073 58.6559 22.5152L58.491 22.6272C58.435 22.5442 58.3655 22.483 58.2826 22.4436C58.1996 22.4042 58.1094 22.3845 58.0119 22.3845C57.8958 22.3845 57.7911 22.4115 57.6977 22.4654C57.6044 22.5172 57.5308 22.5909 57.4769 22.6863C57.423 22.7817 57.396 22.8936 57.396 23.0222C57.396 23.1508 57.423 23.2628 57.4769 23.3582C57.5308 23.4536 57.6044 23.5283 57.6977 23.5822C57.7911 23.634 57.8958 23.66 58.0119 23.66C58.1094 23.66 58.1996 23.6403 58.2826 23.6009C58.3655 23.5615 58.435 23.5013 58.491 23.4204L58.6559 23.5324C58.5916 23.6382 58.5035 23.7191 58.3915 23.7751C58.2795 23.829 58.154 23.8559 58.0151 23.8559ZM60.1133 23.8404V23.4795L60.1039 23.4204V22.8169C60.1039 22.678 60.0645 22.5712 59.9857 22.4965C59.909 22.4218 59.7939 22.3845 59.6404 22.3845C59.5346 22.3845 59.4341 22.4021 59.3387 22.4374C59.2433 22.4726 59.1624 22.5193 59.096 22.5774L58.9965 22.4125C59.0794 22.342 59.179 22.2881 59.2951 22.2507C59.4113 22.2113 59.5336 22.1916 59.6622 22.1916C59.8737 22.1916 60.0365 22.2445 60.1506 22.3503C60.2667 22.454 60.3248 22.6126 60.3248 22.8262V23.8404H60.1133ZM59.5502 23.8559C59.4278 23.8559 59.321 23.8362 59.2298 23.7968C59.1406 23.7554 59.0722 23.6994 59.0245 23.6289C58.9768 23.5563 58.9529 23.4733 58.9529 23.38C58.9529 23.295 58.9726 23.2182 59.012 23.1498C59.0535 23.0793 59.1199 23.0233 59.2111 22.9818C59.3044 22.9382 59.4289 22.9165 59.5844 22.9165H60.1475V23.0813H59.5906C59.433 23.0813 59.3231 23.1093 59.2609 23.1653C59.2007 23.2213 59.1707 23.2908 59.1707 23.3738C59.1707 23.4671 59.207 23.5417 59.2796 23.5977C59.3521 23.6537 59.4538 23.6817 59.5844 23.6817C59.7089 23.6817 59.8157 23.6537 59.9048 23.5977C59.9961 23.5397 60.0625 23.4567 60.1039 23.3489L60.1537 23.5013C60.1122 23.6092 60.0396 23.6952 59.936 23.7595C59.8343 23.8238 59.7057 23.8559 59.5502 23.8559ZM61.5749 23.8559C61.4194 23.8559 61.2794 23.8207 61.1549 23.7502C61.0326 23.6797 60.9361 23.5822 60.8656 23.4578C60.7951 23.3312 60.7598 23.1861 60.7598 23.0222C60.7598 22.8563 60.7951 22.7111 60.8656 22.5867C60.9361 22.4623 61.0326 22.3658 61.1549 22.2974C61.2794 22.2269 61.4194 22.1916 61.5749 22.1916C61.718 22.1916 61.8455 22.2238 61.9575 22.2881C62.0716 22.3524 62.1618 22.4467 62.2282 22.5712C62.2966 22.6935 62.3308 22.8439 62.3308 23.0222C62.3308 23.1985 62.2977 23.3489 62.2313 23.4733C62.1649 23.5977 62.0747 23.6931 61.9606 23.7595C61.8487 23.8238 61.7201 23.8559 61.5749 23.8559ZM61.5905 23.66C61.7066 23.66 61.8103 23.634 61.9015 23.5822C61.9949 23.5283 62.0675 23.4536 62.1193 23.3582C62.1732 23.2607 62.2002 23.1487 62.2002 23.0222C62.2002 22.8936 62.1732 22.7817 62.1193 22.6863C62.0675 22.5909 61.9949 22.5172 61.9015 22.4654C61.8103 22.4115 61.7066 22.3845 61.5905 22.3845C61.4764 22.3845 61.3737 22.4115 61.2825 22.4654C61.1912 22.5172 61.1186 22.5909 61.0647 22.6863C61.0108 22.7817 60.9838 22.8936 60.9838 23.0222C60.9838 23.1487 61.0108 23.2607 61.0647 23.3582C61.1186 23.4536 61.1912 23.5283 61.2825 23.5822C61.3737 23.634 61.4764 23.66 61.5905 23.66ZM62.2064 23.8404V23.3489L62.2282 23.0191L62.1971 22.6894V21.5321H62.4179V23.8404H62.2064ZM63.7268 23.8559C63.5567 23.8559 63.4074 23.8207 63.2788 23.7502C63.1502 23.6776 63.0497 23.5791 62.9771 23.4546C62.9045 23.3281 62.8682 23.184 62.8682 23.0222C62.8682 22.8605 62.9024 22.7174 62.9709 22.5929C63.0414 22.4685 63.1368 22.371 63.2571 22.3005C63.3794 22.2279 63.5163 22.1916 63.6677 22.1916C63.8212 22.1916 63.957 22.2269 64.0752 22.2974C64.1955 22.3658 64.2899 22.4633 64.3583 22.5898C64.4267 22.7143 64.461 22.8584 64.461 23.0222C64.461 23.0326 64.4599 23.044 64.4579 23.0565C64.4579 23.0668 64.4579 23.0782 64.4579 23.0907H63.0362V22.9258H64.3396L64.2525 22.9911C64.2525 22.8729 64.2266 22.7682 64.1748 22.6769C64.125 22.5836 64.0566 22.511 63.9694 22.4592C63.8823 22.4073 63.7818 22.3814 63.6677 22.3814C63.5557 22.3814 63.4551 22.4073 63.3659 22.4592C63.2768 22.511 63.2073 22.5836 63.1575 22.6769C63.1077 22.7703 63.0828 22.8771 63.0828 22.9973V23.0316C63.0828 23.156 63.1098 23.2659 63.1637 23.3613C63.2197 23.4546 63.2965 23.5283 63.3939 23.5822C63.4935 23.634 63.6065 23.66 63.733 23.66C63.8326 23.66 63.9249 23.6423 64.0099 23.6071C64.097 23.5718 64.1717 23.5179 64.2339 23.4453L64.3583 23.5884C64.2857 23.6755 64.1945 23.7419 64.0845 23.7875C63.9767 23.8331 63.8575 23.8559 63.7268 23.8559ZM63.1513 21.9521L63.5526 21.5663H63.7766L64.1779 21.9521H63.9726L63.5775 21.6223H63.7517L63.3566 21.9521H63.1513ZM66.9513 22.1916C67.084 22.1916 67.1991 22.2176 67.2966 22.2694C67.3961 22.3192 67.4729 22.3959 67.5268 22.4996C67.5828 22.6033 67.6108 22.734 67.6108 22.8916V23.8404H67.3899V22.9134C67.3899 22.7412 67.3484 22.6116 67.2655 22.5245C67.1846 22.4353 67.0695 22.3907 66.9202 22.3907C66.8082 22.3907 66.7107 22.4146 66.6277 22.4623C66.5469 22.5079 66.4836 22.5753 66.438 22.6645C66.3944 22.7516 66.3726 22.8574 66.3726 22.9818V23.8404H66.1518V22.9134C66.1518 22.7412 66.1103 22.6116 66.0273 22.5245C65.9444 22.4353 65.8282 22.3907 65.6789 22.3907C65.569 22.3907 65.4726 22.4146 65.3896 22.4623C65.3067 22.5079 65.2424 22.5753 65.1967 22.6645C65.1532 22.7516 65.1314 22.8574 65.1314 22.9818V23.8404H64.9105V22.2072H65.1221V22.6489L65.0879 22.5712C65.1376 22.4529 65.2175 22.3607 65.3274 22.2943C65.4394 22.2258 65.5711 22.1916 65.7225 22.1916C65.8822 22.1916 66.018 22.2321 66.13 22.313C66.242 22.3918 66.3146 22.511 66.3478 22.6707L66.2607 22.6365C66.3084 22.5038 66.3923 22.3969 66.5126 22.3161C66.635 22.2331 66.7812 22.1916 66.9513 22.1916ZM68.2098 23.8404V22.2072H68.4306V23.8404H68.2098ZM68.3218 21.8463C68.2761 21.8463 68.2378 21.8308 68.2067 21.7997C68.1755 21.7685 68.16 21.7312 68.16 21.6877C68.16 21.6441 68.1755 21.6078 68.2067 21.5788C68.2378 21.5477 68.2761 21.5321 68.3218 21.5321C68.3674 21.5321 68.4058 21.5466 68.4369 21.5757C68.468 21.6047 68.4835 21.641 68.4835 21.6846C68.4835 21.7302 68.468 21.7685 68.4369 21.7997C68.4078 21.8308 68.3695 21.8463 68.3218 21.8463ZM69.7234 23.8559C69.5616 23.8559 69.4164 23.8207 69.2879 23.7502C69.1613 23.6776 69.0618 23.5791 68.9892 23.4546C68.9166 23.3281 68.8803 23.184 68.8803 23.0222C68.8803 22.8584 68.9166 22.7143 68.9892 22.5898C69.0618 22.4654 69.1613 22.3679 69.2879 22.2974C69.4164 22.2269 69.5616 22.1916 69.7234 22.1916C69.8623 22.1916 69.9878 22.2186 70.0998 22.2725C70.2118 22.3264 70.2999 22.4073 70.3642 22.5152L70.1993 22.6272C70.1433 22.5442 70.0739 22.483 69.9909 22.4436C69.908 22.4042 69.8177 22.3845 69.7203 22.3845C69.6041 22.3845 69.4994 22.4115 69.4061 22.4654C69.3127 22.5172 69.2391 22.5909 69.1852 22.6863C69.1313 22.7817 69.1043 22.8936 69.1043 23.0222C69.1043 23.1508 69.1313 23.2628 69.1852 23.3582C69.2391 23.4536 69.3127 23.5283 69.4061 23.5822C69.4994 23.634 69.6041 23.66 69.7203 23.66C69.8177 23.66 69.908 23.6403 69.9909 23.6009C70.0739 23.5615 70.1433 23.5013 70.1993 23.4204L70.3642 23.5324C70.2999 23.6382 70.2118 23.7191 70.0998 23.7751C69.9878 23.829 69.8623 23.8559 69.7234 23.8559ZM71.8216 23.8404V23.4795L71.8123 23.4204V22.8169C71.8123 22.678 71.7729 22.5712 71.694 22.4965C71.6173 22.4218 71.5022 22.3845 71.3487 22.3845C71.243 22.3845 71.1424 22.4021 71.047 22.4374C70.9516 22.4726 70.8707 22.5193 70.8043 22.5774L70.7048 22.4125C70.7877 22.342 70.8873 22.2881 71.0034 22.2507C71.1196 22.2113 71.2419 22.1916 71.3705 22.1916C71.5821 22.1916 71.7449 22.2445 71.8589 22.3503C71.9751 22.454 72.0331 22.6126 72.0331 22.8262V23.8404H71.8216ZM71.2585 23.8559C71.1362 23.8559 71.0294 23.8362 70.9381 23.7968C70.8489 23.7554 70.7805 23.6994 70.7328 23.6289C70.6851 23.5563 70.6612 23.4733 70.6612 23.38C70.6612 23.295 70.6809 23.2182 70.7203 23.1498C70.7618 23.0793 70.8282 23.0233 70.9194 22.9818C71.0128 22.9382 71.1372 22.9165 71.2927 22.9165H71.8558V23.0813H71.299C71.1413 23.0813 71.0314 23.1093 70.9692 23.1653C70.9091 23.2213 70.879 23.2908 70.879 23.3738C70.879 23.4671 70.9153 23.5417 70.9879 23.5977C71.0605 23.6537 71.1621 23.6817 71.2927 23.6817C71.4172 23.6817 71.524 23.6537 71.6132 23.5977C71.7044 23.5397 71.7708 23.4567 71.8123 23.3489L71.862 23.5013C71.8206 23.6092 71.748 23.6952 71.6443 23.7595C71.5426 23.8238 71.4141 23.8559 71.2585 23.8559Z" fill="white"/>
</svg>
